DavidHadashUpright-Medium_draw_a.ufo
<glyph name="exclam" format="1">
  <advance width="408"/>
  <unicode hex="0021"/>
  <outline>
    <contour>
      <point x="189" y="247" type="curve" smooth="yes"/>
      <point x="191" y="235"/>
      <point x="195" y="226"/>
      <point x="200" y="226" type="curve" smooth="yes"/>
      <point x="206" y="226"/>
      <point x="214" y="231"/>
      <point x="222" y="242" type="curve" smooth="yes"/>
      <point x="236" y="261"/>
      <point x="243" y="273"/>
      <point x="250" y="286" type="curve" smooth="yes"/>
      <point x="260" y="304"/>
      <point x="264" y="313"/>
      <point x="265" y="332" type="curve" smooth="yes"/>
      <point x="268" y="372"/>
      <point x="268" y="444"/>
      <point x="268" y="488" type="curve" smooth="yes"/>
      <point x="268" y="589"/>
      <point x="265" y="682"/>
      <point x="263" y="705" type="curve" smooth="yes"/>
      <point x="262" y="711"/>
      <point x="259" y="720"/>
      <point x="250" y="720" type="curve" smooth="yes"/>
      <point x="242" y="720"/>
      <point x="234" y="713"/>
      <point x="224" y="703" type="curve" smooth="yes"/>
      <point x="204" y="683"/>
      <point x="182" y="660"/>
      <point x="163" y="638" type="curve" smooth="yes"/>
      <point x="157" y="631"/>
      <point x="152" y="620"/>
      <point x="152" y="608" type="curve" smooth="yes"/>
      <point x="152" y="535"/>
      <point x="172" y="355"/>
    </contour>
    <contour>
      <point x="136" y="54" type="curve" smooth="yes"/>
      <point x="156" y="26"/>
      <point x="186" y="1"/>
      <point x="220" y="-17" type="curve" smooth="yes"/>
      <point x="223" y="-19"/>
      <point x="228" y="-20"/>
      <point x="233" y="-20" type="curve" smooth="yes"/>
      <point x="237" y="-20"/>
      <point x="242" y="-16"/>
      <point x="245" y="-13" type="curve" smooth="yes"/>
      <point x="266" y="8"/>
      <point x="285" y="29"/>
      <point x="307" y="59" type="curve" smooth="yes"/>
      <point x="309" y="62"/>
      <point x="312" y="70"/>
      <point x="312" y="76" type="curve" smooth="yes"/>
      <point x="312" y="82"/>
      <point x="309" y="86"/>
      <point x="304" y="90" type="curve" smooth="yes"/>
      <point x="279" y="105"/>
      <point x="250" y="127"/>
      <point x="229" y="150" type="curve" smooth="yes"/>
      <point x="223" y="156"/>
      <point x="220" y="158"/>
      <point x="216" y="158" type="curve" smooth="yes"/>
      <point x="210" y="158"/>
      <point x="204" y="154"/>
      <point x="199" y="149" type="curve" smooth="yes"/>
      <point x="190" y="140"/>
      <point x="147" y="94"/>
      <point x="136" y="81" type="curve" smooth="yes"/>
      <point x="132" y="76"/>
      <point x="131" y="70"/>
      <point x="131" y="66" type="curve" smooth="yes"/>
      <point x="131" y="61"/>
      <point x="133" y="57"/>
    </contour>
  </outline>
</glyph>
<glyph name="percent" format="1">
  <advance width="567"/>
  <unicode hex="0025"/>
  <outline>
    <contour>
      <point x="31" y="524" type="curve" smooth="yes"/>
      <point x="31" y="423"/>
      <point x="79" y="363"/>
      <point x="149" y="363" type="curve" smooth="yes"/>
      <point x="205" y="363"/>
      <point x="248" y="419"/>
      <point x="265" y="446" type="curve" smooth="yes"/>
      <point x="283" y="475"/>
      <point x="302" y="525"/>
      <point x="302" y="582" type="curve" smooth="yes"/>
      <point x="302" y="644"/>
      <point x="269" y="727"/>
      <point x="198" y="727" type="curve" smooth="yes"/>
      <point x="145" y="727"/>
      <point x="82" y="658"/>
      <point x="57" y="620" type="curve" smooth="yes"/>
      <point x="48" y="607"/>
      <point x="31" y="577"/>
    </contour>
    <contour>
      <point x="240" y="327" type="curve" smooth="yes"/>
      <point x="162" y="195"/>
      <point x="98" y="84"/>
      <point x="64" y="20" type="curve" smooth="yes"/>
      <point x="62" y="16"/>
      <point x="61" y="13"/>
      <point x="61" y="10" type="curve" smooth="yes"/>
      <point x="61" y="3"/>
      <point x="63" y="0"/>
      <point x="70" y="0" type="curve" smooth="yes"/>
      <point x="73" y="0"/>
      <point x="79" y="2"/>
      <point x="86" y="7" type="curve" smooth="yes"/>
      <point x="97" y="15"/>
      <point x="116" y="24"/>
      <point x="130" y="37" type="curve" smooth="yes"/>
      <point x="141" y="47"/>
      <point x="155" y="73"/>
      <point x="165" y="92" type="curve" smooth="yes"/>
      <point x="199" y="157"/>
      <point x="279" y="301"/>
      <point x="307" y="348" type="curve" smooth="yes"/>
      <point x="329" y="386"/>
      <point x="498" y="674"/>
      <point x="508" y="703" type="curve" smooth="yes"/>
      <point x="510" y="709"/>
      <point x="512" y="713"/>
      <point x="512" y="718" type="curve" smooth="yes"/>
      <point x="512" y="722"/>
      <point x="510" y="725"/>
      <point x="506" y="725" type="curve" smooth="yes"/>
      <point x="502" y="725"/>
      <point x="493" y="723"/>
      <point x="484" y="716" type="curve"/>
      <point x="446" y="689" type="line"/>
      <point x="435" y="681"/>
      <point x="425" y="671"/>
      <point x="421" y="662" type="curve" smooth="yes"/>
      <point x="405" y="625"/>
      <point x="327" y="473"/>
    </contour>
    <contour>
      <point x="218" y="526" type="curve" smooth="yes"/>
      <point x="218" y="478"/>
      <point x="203" y="457"/>
      <point x="170" y="457" type="curve" smooth="yes"/>
      <point x="130" y="457"/>
      <point x="114" y="505"/>
      <point x="114" y="553" type="curve" smooth="yes"/>
      <point x="114" y="595"/>
      <point x="122" y="637"/>
      <point x="152" y="637" type="curve" smooth="yes"/>
      <point x="193" y="637"/>
      <point x="218" y="604"/>
    </contour>
    <contour>
      <point x="275" y="162" type="curve" smooth="yes"/>
      <point x="275" y="51"/>
      <point x="327" y="-1"/>
      <point x="393" y="-1" type="curve" smooth="yes"/>
      <point x="449" y="-1"/>
      <point x="492" y="54"/>
      <point x="509" y="82" type="curve" smooth="yes"/>
      <point x="527" y="112"/>
      <point x="546" y="161"/>
      <point x="546" y="218" type="curve" smooth="yes"/>
      <point x="546" y="281"/>
      <point x="510" y="362"/>
      <point x="442" y="362" type="curve" smooth="yes"/>
      <point x="386" y="362"/>
      <point x="326" y="292"/>
      <point x="301" y="256" type="curve" smooth="yes"/>
      <point x="292" y="243"/>
      <point x="275" y="212"/>
    </contour>
    <contour>
      <point x="462" y="161" type="curve" smooth="yes"/>
      <point x="462" y="113"/>
      <point x="447" y="92"/>
      <point x="414" y="92" type="curve" smooth="yes"/>
      <point x="374" y="92"/>
      <point x="358" y="139"/>
      <point x="358" y="187" type="curve" smooth="yes"/>
      <point x="358" y="231"/>
      <point x="366" y="273"/>
      <point x="395" y="273" type="curve" smooth="yes"/>
      <point x="439" y="273"/>
      <point x="462" y="237"/>
    </contour>
  </outline>
</glyph>
<glyph name="ampersand" format="1">
  <advance width="755"/>
  <unicode hex="0026"/>
  <outline>
    <contour>
      <point x="271" y="347" type="curve"/>
      <point x="326" y="274"/>
      <point x="409" y="170"/>
      <point x="454" y="116" type="curve"/>
      <point x="441" y="105"/>
      <point x="407" y="87"/>
      <point x="360" y="87" type="curve" smooth="yes"/>
      <point x="271" y="87"/>
      <point x="219" y="175"/>
      <point x="219" y="225" type="curve" smooth="yes"/>
      <point x="219" y="290"/>
      <point x="251" y="334"/>
    </contour>
    <contour>
      <point x="179" y="527" type="curve" smooth="yes"/>
      <point x="179" y="489"/>
      <point x="190" y="454"/>
      <point x="225" y="408" type="curve"/>
      <point x="205" y="395"/>
      <point x="103" y="324"/>
      <point x="103" y="203" type="curve" smooth="yes"/>
      <point x="103" y="57"/>
      <point x="213" y="-4"/>
      <point x="313" y="-4" type="curve" smooth="yes"/>
      <point x="391" y="-4"/>
      <point x="447" y="32"/>
      <point x="494" y="64" type="curve"/>
      <point x="500" y="55"/>
      <point x="534" y="15"/>
      <point x="547" y="2" type="curve" smooth="yes"/>
      <point x="548" y="1"/>
      <point x="556" y="-6"/>
      <point x="561" y="-6" type="curve" smooth="yes"/>
      <point x="569" y="-6"/>
      <point x="580" y="-1"/>
      <point x="583" y="1" type="curve" smooth="yes"/>
      <point x="614" y="18"/>
      <point x="626" y="29"/>
      <point x="655" y="50" type="curve" smooth="yes"/>
      <point x="666" y="58"/>
      <point x="671" y="62"/>
      <point x="671" y="69" type="curve" smooth="yes"/>
      <point x="671" y="73"/>
      <point x="661" y="80"/>
      <point x="658" y="83" type="curve" smooth="yes"/>
      <point x="632" y="111"/>
      <point x="619" y="122"/>
      <point x="589" y="159" type="curve"/>
      <point x="641" y="219"/>
      <point x="666" y="292"/>
      <point x="666" y="350" type="curve" smooth="yes"/>
      <point x="666" y="394"/>
      <point x="660" y="428"/>
      <point x="637" y="468" type="curve" smooth="yes"/>
      <point x="633" y="474"/>
      <point x="631" y="475"/>
      <point x="627" y="475" type="curve" smooth="yes"/>
      <point x="623" y="475"/>
      <point x="618" y="470"/>
      <point x="615" y="467" type="curve" smooth="yes"/>
      <point x="603" y="456"/>
      <point x="554" y="408"/>
      <point x="541" y="394" type="curve" smooth="yes"/>
      <point x="537" y="390"/>
      <point x="533" y="382"/>
      <point x="533" y="379" type="curve" smooth="yes"/>
      <point x="533" y="377"/>
      <point x="535" y="372"/>
      <point x="537" y="368" type="curve" smooth="yes"/>
      <point x="548" y="345"/>
      <point x="567" y="304"/>
      <point x="567" y="273" type="curve" smooth="yes"/>
      <point x="567" y="247"/>
      <point x="551" y="222"/>
      <point x="545" y="209" type="curve"/>
      <point x="485" y="279"/>
      <point x="451" y="333"/>
      <point x="372" y="429" type="curve"/>
      <point x="417" y="463"/>
      <point x="493" y="520"/>
      <point x="493" y="594" type="curve" smooth="yes"/>
      <point x="493" y="661"/>
      <point x="451" y="722"/>
      <point x="378" y="722" type="curve" smooth="yes"/>
      <point x="272" y="722"/>
      <point x="179" y="639"/>
    </contour>
    <contour>
      <point x="324" y="644" type="curve" smooth="yes"/>
      <point x="354" y="644"/>
      <point x="380" y="619"/>
      <point x="380" y="578" type="curve" smooth="yes"/>
      <point x="380" y="541"/>
      <point x="353" y="502"/>
      <point x="330" y="487" type="curve"/>
      <point x="309" y="514"/>
      <point x="279" y="575"/>
      <point x="279" y="598" type="curve" smooth="yes"/>
      <point x="279" y="624"/>
      <point x="302" y="644"/>
    </contour>
  </outline>
</glyph>
<glyph name="parenright" format="1">
  <advance width="408"/>
  <unicode hex="0029"/>
  <outline>
    <contour>
      <point x="211" y="234" type="curve" smooth="yes"/>
      <point x="211" y="148"/>
      <point x="182" y="66"/>
      <point x="160" y="11" type="curve" smooth="yes"/>
      <point x="143" y="-32"/>
      <point x="102" y="-107"/>
      <point x="80" y="-151" type="curve" smooth="yes"/>
      <point x="79" y="-153"/>
      <point x="76" y="-158"/>
      <point x="76" y="-160" type="curve" smooth="yes"/>
      <point x="76" y="-164"/>
      <point x="79" y="-167"/>
      <point x="83" y="-167" type="curve" smooth="yes"/>
      <point x="86" y="-167"/>
      <point x="94" y="-164"/>
      <point x="99" y="-161" type="curve" smooth="yes"/>
      <point x="119" y="-149"/>
      <point x="150" y="-123"/>
      <point x="154" y="-120" type="curve" smooth="yes"/>
      <point x="164" y="-111"/>
      <point x="177" y="-96"/>
      <point x="186" y="-81" type="curve" smooth="yes"/>
      <point x="194" y="-68"/>
      <point x="234" y="3"/>
      <point x="251" y="38" type="curve" smooth="yes"/>
      <point x="278" y="95"/>
      <point x="318" y="181"/>
      <point x="318" y="278" type="curve" smooth="yes"/>
      <point x="318" y="343"/>
      <point x="303" y="431"/>
      <point x="268" y="510" type="curve" smooth="yes"/>
      <point x="235" y="584"/>
      <point x="188" y="651"/>
      <point x="154" y="689" type="curve" smooth="yes"/>
      <point x="151" y="693"/>
      <point x="143" y="700"/>
      <point x="138" y="700" type="curve" smooth="yes"/>
      <point x="133" y="700"/>
      <point x="130" y="697"/>
      <point x="127" y="692" type="curve" smooth="yes"/>
      <point x="117" y="676"/>
      <point x="93" y="632"/>
      <point x="81" y="601" type="curve" smooth="yes"/>
      <point x="79" y="596"/>
      <point x="78" y="591"/>
      <point x="78" y="588" type="curve" smooth="yes"/>
      <point x="78" y="581"/>
      <point x="82" y="576"/>
      <point x="86" y="570" type="curve" smooth="yes"/>
      <point x="117" y="525"/>
      <point x="135" y="503"/>
      <point x="169" y="427" type="curve" smooth="yes"/>
      <point x="197" y="364"/>
      <point x="211" y="288"/>
    </contour>
  </outline>
</glyph>
<glyph name="hyphen" format="1">
  <advance width="407"/>
  <unicode hex="002D"/>
  <outline>
    <contour>
      <point x="99" y="534" type="curve" smooth="yes"/>
      <point x="73" y="499"/>
      <point x="42" y="448"/>
      <point x="42" y="434" type="curve" smooth="yes"/>
      <point x="42" y="424"/>
      <point x="52" y="421"/>
      <point x="63" y="421" type="curve" smooth="yes"/>
      <point x="289" y="421" type="line" smooth="yes"/>
      <point x="302" y="421"/>
      <point x="315" y="434"/>
      <point x="329" y="453" type="curve" smooth="yes"/>
      <point x="342" y="471"/>
      <point x="354" y="493"/>
      <point x="365" y="518" type="curve" smooth="yes"/>
      <point x="368" y="525"/>
      <point x="370" y="531"/>
      <point x="370" y="535" type="curve" smooth="yes"/>
      <point x="370" y="548"/>
      <point x="361" y="552"/>
      <point x="347" y="552" type="curve" smooth="yes"/>
      <point x="130" y="552" type="line" smooth="yes"/>
      <point x="119" y="552"/>
      <point x="109" y="547"/>
    </contour>
  </outline>
</glyph>
<glyph name="zero" format="1">
  <advance width="568"/>
  <unicode hex="0030"/>
  <outline>
    <contour>
      <point x="189" y="6" type="curve" smooth="yes"/>
      <point x="219" y="-13"/>
      <point x="256" y="-16"/>
      <point x="280" y="-16" type="curve" smooth="yes"/>
      <point x="298" y="-16"/>
      <point x="321" y="-9"/>
      <point x="338" y="-1" type="curve" smooth="yes"/>
      <point x="397" y="27"/>
      <point x="443" y="95"/>
      <point x="464" y="145" type="curve" smooth="yes"/>
      <point x="496" y="221"/>
      <point x="506" y="290"/>
      <point x="506" y="352" type="curve" smooth="yes"/>
      <point x="506" y="446"/>
      <point x="493" y="555"/>
      <point x="445" y="621" type="curve" smooth="yes"/>
      <point x="406" y="675"/>
      <point x="349" y="712"/>
      <point x="285" y="712" type="curve" smooth="yes"/>
      <point x="227" y="712"/>
      <point x="178" y="681"/>
      <point x="143" y="635" type="curve" smooth="yes"/>
      <point x="121" y="607"/>
      <point x="103" y="575"/>
      <point x="91" y="536" type="curve" smooth="yes"/>
      <point x="74" y="482"/>
      <point x="66" y="413"/>
      <point x="66" y="360" type="curve" smooth="yes"/>
      <point x="67" y="225"/>
      <point x="90" y="69"/>
    </contour>
    <contour>
      <point x="310" y="113" type="curve" smooth="yes"/>
      <point x="259" y="113"/>
      <point x="220" y="141"/>
      <point x="203" y="180" type="curve" smooth="yes"/>
      <point x="185" y="222"/>
      <point x="173" y="304"/>
      <point x="173" y="379" type="curve" smooth="yes"/>
      <point x="173" y="427"/>
      <point x="179" y="491"/>
      <point x="191" y="535" type="curve" smooth="yes"/>
      <point x="198" y="559"/>
      <point x="213" y="586"/>
      <point x="248" y="586" type="curve" smooth="yes"/>
      <point x="298" y="586"/>
      <point x="335" y="554"/>
      <point x="351" y="519" type="curve" smooth="yes"/>
      <point x="382" y="449"/>
      <point x="391" y="375"/>
      <point x="391" y="304" type="curve" smooth="yes"/>
      <point x="391" y="282"/>
      <point x="390" y="261"/>
      <point x="388" y="240" type="curve" smooth="yes"/>
      <point x="385" y="200"/>
      <point x="377" y="155"/>
      <point x="363" y="134" type="curve" smooth="yes"/>
      <point x="352" y="118"/>
      <point x="330" y="113"/>
    </contour>
  </outline>
</glyph>
<glyph name="one" format="1">
  <advance width="568"/>
  <unicode hex="0031"/>
  <outline>
    <contour>
      <point x="64" y="22" type="curve" smooth="yes"/>
      <point x="61" y="15"/>
      <point x="61" y="13"/>
      <point x="61" y="10" type="curve" smooth="yes"/>
      <point x="61" y="3"/>
      <point x="73" y="0"/>
      <point x="87" y="0" type="curve" smooth="yes"/>
      <point x="413" y="0" type="line" smooth="yes"/>
      <point x="447" y="0"/>
      <point x="467" y="52"/>
      <point x="494" y="99" type="curve" smooth="yes"/>
      <point x="498" y="106"/>
      <point x="502" y="115"/>
      <point x="502" y="119" type="curve" smooth="yes"/>
      <point x="502" y="128"/>
      <point x="495" y="131"/>
      <point x="488" y="131" type="curve" smooth="yes"/>
      <point x="385" y="131" type="line" smooth="yes"/>
      <point x="365" y="131"/>
      <point x="359" y="140"/>
      <point x="358" y="162" type="curve" smooth="yes"/>
      <point x="357" y="200"/>
      <point x="348" y="343"/>
      <point x="348" y="512" type="curve" smooth="yes"/>
      <point x="348" y="541"/>
      <point x="345" y="622"/>
      <point x="338" y="676" type="curve" smooth="yes"/>
      <point x="334" y="707"/>
      <point x="323" y="720"/>
      <point x="306" y="720" type="curve" smooth="yes"/>
      <point x="294" y="720"/>
      <point x="285" y="716"/>
      <point x="268" y="706" type="curve" smooth="yes"/>
      <point x="218" y="677"/>
      <point x="155" y="636"/>
      <point x="112" y="601" type="curve" smooth="yes"/>
      <point x="101" y="592"/>
      <point x="94" y="580"/>
      <point x="94" y="570" type="curve" smooth="yes"/>
      <point x="94" y="559"/>
      <point x="105" y="555"/>
      <point x="122" y="554" type="curve" smooth="yes"/>
      <point x="127" y="554"/>
      <point x="147" y="553"/>
      <point x="153" y="553" type="curve" smooth="yes"/>
      <point x="186" y="552"/>
      <point x="221" y="532"/>
      <point x="227" y="474" type="curve" smooth="yes"/>
      <point x="235" y="398"/>
      <point x="239" y="324"/>
      <point x="239" y="162" type="curve" smooth="yes"/>
      <point x="239" y="145"/>
      <point x="230" y="131"/>
      <point x="212" y="131" type="curve" smooth="yes"/>
      <point x="140" y="131" type="line" smooth="yes"/>
      <point x="125" y="131"/>
      <point x="119" y="127"/>
      <point x="114" y="119" type="curve" smooth="yes"/>
      <point x="100" y="100"/>
      <point x="74" y="45"/>
    </contour>
  </outline>
</glyph>
<glyph name="two" format="1">
  <advance width="568"/>
  <unicode hex="0032"/>
  <outline>
    <contour>
      <point x="86" y="24" type="curve" smooth="yes"/>
      <point x="85" y="20"/>
      <point x="84" y="16"/>
      <point x="84" y="13" type="curve" smooth="yes"/>
      <point x="84" y="5"/>
      <point x="89" y="1"/>
      <point x="101" y="1" type="curve" smooth="yes"/>
      <point x="421" y="1" type="line" smooth="yes"/>
      <point x="428" y="1"/>
      <point x="433" y="4"/>
      <point x="439" y="10" type="curve" smooth="yes"/>
      <point x="455" y="26"/>
      <point x="490" y="98"/>
      <point x="498" y="112" type="curve" smooth="yes"/>
      <point x="500" y="115"/>
      <point x="503" y="122"/>
      <point x="503" y="124" type="curve" smooth="yes"/>
      <point x="503" y="129"/>
      <point x="499" y="131"/>
      <point x="492" y="131" type="curve" smooth="yes"/>
      <point x="266" y="131" type="line" smooth="yes"/>
      <point x="258" y="131"/>
      <point x="256" y="135"/>
      <point x="256" y="144" type="curve" smooth="yes"/>
      <point x="256" y="168"/>
      <point x="329" y="281"/>
      <point x="377" y="340" type="curve" smooth="yes"/>
      <point x="432" y="407"/>
      <point x="461" y="473"/>
      <point x="461" y="530" type="curve" smooth="yes"/>
      <point x="461" y="671"/>
      <point x="308" y="710"/>
      <point x="195" y="710" type="curve" smooth="yes"/>
      <point x="184" y="710"/>
      <point x="172" y="702"/>
      <point x="168" y="697" type="curve" smooth="yes"/>
      <point x="149" y="674"/>
      <point x="131" y="647"/>
      <point x="109" y="611" type="curve" smooth="yes"/>
      <point x="106" y="606"/>
      <point x="101" y="597"/>
      <point x="101" y="595" type="curve" smooth="yes"/>
      <point x="101" y="589"/>
      <point x="107" y="586"/>
      <point x="118" y="586" type="curve" smooth="yes"/>
      <point x="160" y="586"/>
      <point x="225" y="576"/>
      <point x="258" y="563" type="curve" smooth="yes"/>
      <point x="309" y="544"/>
      <point x="328" y="498"/>
      <point x="328" y="469" type="curve" smooth="yes"/>
      <point x="328" y="386"/>
      <point x="256" y="307"/>
      <point x="209" y="244" type="curve" smooth="yes"/>
      <point x="178" y="203"/>
      <point x="117" y="120"/>
    </contour>
  </outline>
</glyph>
<glyph name="three" format="1">
  <advance width="568"/>
  <unicode hex="0033"/>
  <outline>
    <contour>
      <point x="76" y="48" type="curve" smooth="yes"/>
      <point x="71" y="41"/>
      <point x="69" y="36"/>
      <point x="69" y="31" type="curve" smooth="yes"/>
      <point x="69" y="23"/>
      <point x="79" y="19"/>
      <point x="84" y="17" type="curve" smooth="yes"/>
      <point x="136" y="-4"/>
      <point x="190" y="-16"/>
      <point x="236" y="-16" type="curve" smooth="yes"/>
      <point x="281" y="-16"/>
      <point x="343" y="3"/>
      <point x="391" y="49" type="curve" smooth="yes"/>
      <point x="436" y="92"/>
      <point x="487" y="162"/>
      <point x="487" y="248" type="curve" smooth="yes"/>
      <point x="487" y="348"/>
      <point x="401" y="388"/>
      <point x="371" y="403" type="curve" smooth="yes"/>
      <point x="367" y="405"/>
      <point x="364" y="404"/>
      <point x="364" y="410" type="curve" smooth="yes"/>
      <point x="364" y="412"/>
      <point x="368" y="419"/>
      <point x="374" y="424" type="curve" smooth="yes"/>
      <point x="408" y="453"/>
      <point x="446" y="499"/>
      <point x="446" y="565" type="curve" smooth="yes"/>
      <point x="446" y="621"/>
      <point x="408" y="661"/>
      <point x="358" y="683" type="curve" smooth="yes"/>
      <point x="312" y="703"/>
      <point x="246" y="712"/>
      <point x="208" y="712" type="curve" smooth="yes"/>
      <point x="198" y="712"/>
      <point x="191" y="706"/>
      <point x="185" y="699" type="curve" smooth="yes"/>
      <point x="167" y="678"/>
      <point x="120" y="615"/>
      <point x="120" y="605" type="curve" smooth="yes"/>
      <point x="120" y="595"/>
      <point x="126" y="593"/>
      <point x="137" y="593" type="curve" smooth="yes"/>
      <point x="162" y="593"/>
      <point x="224" y="589"/>
      <point x="257" y="581" type="curve" smooth="yes"/>
      <point x="302" y="570"/>
      <point x="332" y="543"/>
      <point x="332" y="510" type="curve" smooth="yes"/>
      <point x="332" y="473"/>
      <point x="307" y="442"/>
      <point x="259" y="423" type="curve" smooth="yes"/>
      <point x="241" y="416"/>
      <point x="226" y="405"/>
      <point x="217" y="393" type="curve" smooth="yes"/>
      <point x="196" y="365"/>
      <point x="177" y="334"/>
      <point x="177" y="322" type="curve" smooth="yes"/>
      <point x="177" y="308"/>
      <point x="182" y="306"/>
      <point x="196" y="306" type="curve" smooth="yes"/>
      <point x="219" y="306"/>
      <point x="253" y="300"/>
      <point x="277" y="293" type="curve" smooth="yes"/>
      <point x="344" y="274"/>
      <point x="364" y="227"/>
      <point x="364" y="198" type="curve" smooth="yes"/>
      <point x="364" y="155"/>
      <point x="335" y="106"/>
      <point x="259" y="105" type="curve" smooth="yes"/>
      <point x="225" y="105"/>
      <point x="184" y="119"/>
      <point x="168" y="126" type="curve" smooth="yes"/>
      <point x="159" y="130"/>
      <point x="152" y="133"/>
      <point x="147" y="133" type="curve" smooth="yes"/>
      <point x="141" y="133"/>
      <point x="135" y="128"/>
      <point x="129" y="120" type="curve" smooth="yes"/>
      <point x="114" y="102"/>
      <point x="98" y="79"/>
    </contour>
  </outline>
</glyph>
<glyph name="four" format="1">
  <advance width="567"/>
  <unicode hex="0034"/>
  <outline>
    <contour>
      <point x="302" y="186" type="curve"/>
      <point x="302" y="166"/>
      <point x="305" y="43"/>
      <point x="306" y="-5" type="curve" smooth="yes"/>
      <point x="306" y="-20"/>
      <point x="312" y="-25"/>
      <point x="320" y="-25" type="curve" smooth="yes"/>
      <point x="326" y="-25"/>
      <point x="331" y="-19"/>
      <point x="339" y="-11" type="curve" smooth="yes"/>
      <point x="359" y="9"/>
      <point x="384" y="45"/>
      <point x="394" y="67" type="curve" smooth="yes"/>
      <point x="399" y="77"/>
      <point x="400" y="83"/>
      <point x="400" y="92" type="curve" smooth="yes"/>
      <point x="400" y="189" type="line" smooth="yes"/>
      <point x="400" y="200"/>
      <point x="402" y="203"/>
      <point x="410" y="203" type="curve" smooth="yes"/>
      <point x="456" y="203" type="line" smooth="yes"/>
      <point x="463" y="203"/>
      <point x="471" y="209"/>
      <point x="477" y="221" type="curve" smooth="yes"/>
      <point x="498" y="263"/>
      <point x="519" y="309"/>
      <point x="519" y="320" type="curve" smooth="yes"/>
      <point x="519" y="329"/>
      <point x="515" y="332"/>
      <point x="507" y="332" type="curve" smooth="yes"/>
      <point x="412" y="332" type="line" smooth="yes"/>
      <point x="403" y="332"/>
      <point x="400" y="335"/>
      <point x="400" y="343" type="curve" smooth="yes"/>
      <point x="399" y="361"/>
      <point x="395" y="599"/>
      <point x="386" y="693" type="curve" smooth="yes"/>
      <point x="384" y="709"/>
      <point x="372" y="718"/>
      <point x="361" y="718" type="curve" smooth="yes"/>
      <point x="353" y="718"/>
      <point x="343" y="716"/>
      <point x="330" y="709" type="curve" smooth="yes"/>
      <point x="292" y="689"/>
      <point x="242" y="655"/>
      <point x="213" y="625" type="curve" smooth="yes"/>
      <point x="179" y="590"/>
      <point x="145" y="545"/>
      <point x="115" y="487" type="curve" smooth="yes"/>
      <point x="87" y="434"/>
      <point x="45" y="326"/>
      <point x="45" y="272" type="curve" smooth="yes"/>
      <point x="45" y="228"/>
      <point x="61" y="203"/>
      <point x="102" y="203" type="curve" smooth="yes"/>
      <point x="285" y="203" type="line" smooth="yes"/>
      <point x="298" y="203"/>
      <point x="301" y="201"/>
    </contour>
    <contour>
      <point x="285" y="552" type="curve" smooth="yes"/>
      <point x="292" y="496"/>
      <point x="299" y="394"/>
      <point x="299" y="348" type="curve" smooth="yes"/>
      <point x="299" y="336"/>
      <point x="297" y="332"/>
      <point x="288" y="332" type="curve" smooth="yes"/>
      <point x="169" y="332" type="line" smooth="yes"/>
      <point x="152" y="332"/>
      <point x="142" y="332"/>
      <point x="142" y="357" type="curve" smooth="yes"/>
      <point x="142" y="391"/>
      <point x="165" y="457"/>
      <point x="188" y="493" type="curve" smooth="yes"/>
      <point x="207" y="523"/>
      <point x="238" y="550"/>
      <point x="263" y="563" type="curve" smooth="yes"/>
      <point x="267" y="565"/>
      <point x="271" y="566"/>
      <point x="274" y="566" type="curve" smooth="yes"/>
      <point x="282" y="566"/>
      <point x="284" y="560"/>
    </contour>
  </outline>
</glyph>
<glyph name="five" format="1">
  <advance width="568"/>
  <unicode hex="0035"/>
  <outline>
    <contour>
      <point x="131" y="124" type="curve" smooth="yes"/>
      <point x="120" y="112"/>
      <point x="95" y="73"/>
      <point x="79" y="47" type="curve" smooth="yes"/>
      <point x="74" y="39"/>
      <point x="72" y="34"/>
      <point x="72" y="28" type="curve" smooth="yes"/>
      <point x="72" y="10"/>
      <point x="177" y="-17"/>
      <point x="231" y="-17" type="curve" smooth="yes"/>
      <point x="303" y="-17"/>
      <point x="379" y="16"/>
      <point x="436" y="112" type="curve" smooth="yes"/>
      <point x="451" y="137"/>
      <point x="482" y="189"/>
      <point x="482" y="248" type="curve" smooth="yes"/>
      <point x="482" y="384"/>
      <point x="349" y="423"/>
      <point x="295" y="423" type="curve" smooth="yes"/>
      <point x="244" y="423" type="line" smooth="yes"/>
      <point x="231" y="423"/>
      <point x="223" y="431"/>
      <point x="223" y="444" type="curve" smooth="yes"/>
      <point x="223" y="458"/>
      <point x="220" y="516"/>
      <point x="220" y="524" type="curve" smooth="yes"/>
      <point x="220" y="536"/>
      <point x="226" y="540"/>
      <point x="238" y="540" type="curve" smooth="yes"/>
      <point x="401" y="540" type="line" smooth="yes"/>
      <point x="423" y="540"/>
      <point x="429" y="544"/>
      <point x="436" y="556" type="curve" smooth="yes"/>
      <point x="447" y="576"/>
      <point x="465" y="614"/>
      <point x="475" y="638" type="curve" smooth="yes"/>
      <point x="479" y="648"/>
      <point x="481" y="655"/>
      <point x="481" y="659" type="curve" smooth="yes"/>
      <point x="481" y="665"/>
      <point x="476" y="674"/>
      <point x="459" y="674" type="curve" smooth="yes"/>
      <point x="239" y="674" type="line" smooth="yes"/>
      <point x="224" y="674"/>
      <point x="214" y="684"/>
      <point x="199" y="708" type="curve" smooth="yes"/>
      <point x="195" y="714"/>
      <point x="194" y="718"/>
      <point x="187" y="718" type="curve" smooth="yes"/>
      <point x="181" y="718"/>
      <point x="174" y="713"/>
      <point x="166" y="702" type="curve" smooth="yes"/>
      <point x="146" y="675"/>
      <point x="120" y="628"/>
      <point x="116" y="609" type="curve" smooth="yes"/>
      <point x="113" y="598"/>
      <point x="111" y="581"/>
      <point x="111" y="552" type="curve" smooth="yes"/>
      <point x="111" y="479"/>
      <point x="112" y="409"/>
      <point x="114" y="349" type="curve" smooth="yes"/>
      <point x="115" y="321"/>
      <point x="128" y="303"/>
      <point x="159" y="303" type="curve" smooth="yes"/>
      <point x="209" y="303" type="line" smooth="yes"/>
      <point x="262" y="303"/>
      <point x="303" y="298"/>
      <point x="326" y="281" type="curve" smooth="yes"/>
      <point x="350" y="263"/>
      <point x="366" y="230"/>
      <point x="366" y="200" type="curve" smooth="yes"/>
      <point x="366" y="146"/>
      <point x="325" y="106"/>
      <point x="270" y="106" type="curve" smooth="yes"/>
      <point x="227" y="106"/>
      <point x="160" y="131"/>
      <point x="145" y="131" type="curve" smooth="yes"/>
      <point x="138" y="131"/>
      <point x="134" y="128"/>
    </contour>
  </outline>
</glyph>
<glyph name="eight" format="1">
  <advance width="568"/>
  <unicode hex="0038"/>
  <outline>
    <contour>
      <point x="58" y="177" type="curve" smooth="yes"/>
      <point x="58" y="127"/>
      <point x="79" y="80"/>
      <point x="114" y="46" type="curve" smooth="yes"/>
      <point x="158" y="4"/>
      <point x="217" y="-18"/>
      <point x="261" y="-18" type="curve" smooth="yes"/>
      <point x="324" y="-18"/>
      <point x="395" y="28"/>
      <point x="435" y="74" type="curve" smooth="yes"/>
      <point x="472" y="116"/>
      <point x="497" y="174"/>
      <point x="497" y="216" type="curve" smooth="yes"/>
      <point x="497" y="265"/>
      <point x="474" y="312"/>
      <point x="438" y="340" type="curve" smooth="yes"/>
      <point x="415" y="358"/>
      <point x="385" y="376"/>
      <point x="367" y="386" type="curve" smooth="yes"/>
      <point x="365" y="387"/>
      <point x="364" y="389"/>
      <point x="364" y="392" type="curve" smooth="yes"/>
      <point x="364" y="393"/>
      <point x="364" y="395"/>
      <point x="365" y="396" type="curve" smooth="yes"/>
      <point x="369" y="401"/>
      <point x="378" y="408"/>
      <point x="387" y="417" type="curve" smooth="yes"/>
      <point x="429" y="462"/>
      <point x="452" y="495"/>
      <point x="452" y="557" type="curve" smooth="yes"/>
      <point x="452" y="643"/>
      <point x="367" y="710"/>
      <point x="290" y="710" type="curve" smooth="yes"/>
      <point x="263" y="710"/>
      <point x="229" y="703"/>
      <point x="205" y="690" type="curve" smooth="yes"/>
      <point x="168" y="670"/>
      <point x="135" y="640"/>
      <point x="109" y="599" type="curve" smooth="yes"/>
      <point x="91" y="571"/>
      <point x="80" y="530"/>
      <point x="80" y="499" type="curve" smooth="yes"/>
      <point x="80" y="428"/>
      <point x="110" y="391"/>
      <point x="161" y="357" type="curve" smooth="yes"/>
      <point x="162" y="356"/>
      <point x="163" y="355"/>
      <point x="163" y="353" type="curve" smooth="yes"/>
      <point x="163" y="351"/>
      <point x="161" y="348"/>
      <point x="157" y="346" type="curve" smooth="yes"/>
      <point x="101" y="314"/>
      <point x="58" y="246"/>
    </contour>
    <contour>
      <point x="374" y="187" type="curve" smooth="yes"/>
      <point x="374" y="159"/>
      <point x="355" y="105"/>
      <point x="295" y="105" type="curve" smooth="yes"/>
      <point x="231" y="105"/>
      <point x="168" y="148"/>
      <point x="168" y="216" type="curve" smooth="yes"/>
      <point x="168" y="277"/>
      <point x="208" y="305"/>
      <point x="228" y="312" type="curve" smooth="yes"/>
      <point x="230" y="313"/>
      <point x="231" y="313"/>
      <point x="233" y="313" type="curve" smooth="yes"/>
      <point x="235" y="313"/>
      <point x="240" y="313"/>
      <point x="242" y="312" type="curve" smooth="yes"/>
      <point x="282" y="292"/>
      <point x="299" y="281"/>
      <point x="327" y="263" type="curve" smooth="yes"/>
      <point x="354" y="246"/>
      <point x="374" y="225"/>
    </contour>
    <contour>
      <point x="306" y="435" type="curve" smooth="yes"/>
      <point x="304" y="433"/>
      <point x="299" y="430"/>
      <point x="295" y="430" type="curve" smooth="yes"/>
      <point x="289" y="430"/>
      <point x="276" y="435"/>
      <point x="269" y="439" type="curve" smooth="yes"/>
      <point x="236" y="458"/>
      <point x="194" y="484"/>
      <point x="194" y="528" type="curve" smooth="yes"/>
      <point x="194" y="568"/>
      <point x="213" y="593"/>
      <point x="257" y="593" type="curve" smooth="yes"/>
      <point x="295" y="593"/>
      <point x="347" y="559"/>
      <point x="347" y="515" type="curve" smooth="yes"/>
      <point x="347" y="474"/>
      <point x="332" y="454"/>
    </contour>
  </outline>
</glyph>
<glyph name="nine" format="1">
  <advance width="567"/>
  <unicode hex="0039"/>
  <outline>
    <contour>
      <point x="303" y="248" type="curve" smooth="yes"/>
      <point x="303" y="239"/>
      <point x="178" y="59"/>
      <point x="150" y="17" type="curve" smooth="yes"/>
      <point x="144" y="8"/>
      <point x="137" y="-4"/>
      <point x="137" y="-11" type="curve" smooth="yes"/>
      <point x="137" y="-17"/>
      <point x="141" y="-25"/>
      <point x="152" y="-25" type="curve" smooth="yes"/>
      <point x="160" y="-25"/>
      <point x="168" y="-22"/>
      <point x="181" y="-16" type="curve" smooth="yes"/>
      <point x="218" y="1"/>
      <point x="252" y="21"/>
      <point x="278" y="39" type="curve" smooth="yes"/>
      <point x="287" y="45"/>
      <point x="297" y="57"/>
      <point x="306" y="69" type="curve" smooth="yes"/>
      <point x="429" y="244"/>
      <point x="519" y="386"/>
      <point x="519" y="489" type="curve" smooth="yes"/>
      <point x="519" y="543"/>
      <point x="502" y="600"/>
      <point x="457" y="643" type="curve" smooth="yes"/>
      <point x="411" y="687"/>
      <point x="352" y="711"/>
      <point x="300" y="711" type="curve" smooth="yes"/>
      <point x="216" y="711"/>
      <point x="152" y="656"/>
      <point x="119" y="613" type="curve" smooth="yes"/>
      <point x="91" y="577"/>
      <point x="55" y="511"/>
      <point x="55" y="445" type="curve" smooth="yes"/>
      <point x="55" y="316"/>
      <point x="158" y="244"/>
      <point x="239" y="244" type="curve" smooth="yes"/>
      <point x="267" y="244"/>
      <point x="294" y="253"/>
      <point x="297" y="253" type="curve" smooth="yes"/>
      <point x="301" y="253"/>
      <point x="303" y="251"/>
    </contour>
    <contour>
      <point x="264" y="589" type="curve" smooth="yes"/>
      <point x="340" y="589"/>
      <point x="397" y="536"/>
      <point x="397" y="467" type="curve" smooth="yes"/>
      <point x="397" y="393"/>
      <point x="350" y="354"/>
      <point x="290" y="354" type="curve" smooth="yes"/>
      <point x="222" y="354"/>
      <point x="165" y="397"/>
      <point x="165" y="482" type="curve" smooth="yes"/>
      <point x="165" y="530"/>
      <point x="191" y="589"/>
    </contour>
  </outline>
</glyph>
<glyph name="semicolon" format="1">
  <advance width="408"/>
  <unicode hex="003B"/>
  <outline>
    <contour>
      <point x="125" y="317" type="curve" smooth="yes"/>
      <point x="144" y="291"/>
      <point x="179" y="261"/>
      <point x="206" y="245" type="curve" smooth="yes"/>
      <point x="209" y="243"/>
      <point x="213" y="242"/>
      <point x="217" y="242" type="curve" smooth="yes"/>
      <point x="221" y="242"/>
      <point x="225" y="244"/>
      <point x="228" y="247" type="curve" smooth="yes"/>
      <point x="247" y="266"/>
      <point x="276" y="296"/>
      <point x="292" y="321" type="curve" smooth="yes"/>
      <point x="295" y="326"/>
      <point x="298" y="332"/>
      <point x="298" y="337" type="curve" smooth="yes"/>
      <point x="298" y="343"/>
      <point x="294" y="348"/>
      <point x="289" y="352" type="curve" smooth="yes"/>
      <point x="269" y="365"/>
      <point x="234" y="397"/>
      <point x="214" y="414" type="curve" smooth="yes"/>
      <point x="209" y="418"/>
      <point x="206" y="421"/>
      <point x="201" y="421" type="curve" smooth="yes"/>
      <point x="196" y="421"/>
      <point x="191" y="418"/>
      <point x="187" y="413" type="curve" smooth="yes"/>
      <point x="176" y="400"/>
      <point x="140" y="360"/>
      <point x="124" y="343" type="curve" smooth="yes"/>
      <point x="120" y="339"/>
      <point x="119" y="334"/>
      <point x="119" y="330" type="curve" smooth="yes"/>
      <point x="119" y="326"/>
      <point x="122" y="321"/>
    </contour>
    <contour>
      <point x="117" y="-137" type="curve" smooth="yes"/>
      <point x="111" y="-155"/>
      <point x="108" y="-162"/>
      <point x="108" y="-170" type="curve" smooth="yes"/>
      <point x="108" y="-177"/>
      <point x="112" y="-184"/>
      <point x="119" y="-184" type="curve" smooth="yes"/>
      <point x="130" y="-184"/>
      <point x="140" y="-174"/>
      <point x="151" y="-163" type="curve" smooth="yes"/>
      <point x="189" y="-125"/>
      <point x="214" y="-77"/>
      <point x="241" y="-34" type="curve" smooth="yes"/>
      <point x="267" y="7"/>
      <point x="282" y="59"/>
      <point x="282" y="92" type="curve" smooth="yes"/>
      <point x="282" y="119"/>
      <point x="276" y="150"/>
      <point x="266" y="170" type="curve" smooth="yes"/>
      <point x="260" y="182"/>
      <point x="253" y="191"/>
      <point x="247" y="191" type="curve" smooth="yes"/>
      <point x="238" y="191"/>
      <point x="233" y="189"/>
      <point x="225" y="181" type="curve" smooth="yes"/>
      <point x="197" y="153"/>
      <point x="178" y="135"/>
      <point x="164" y="116" type="curve" smooth="yes"/>
      <point x="159" y="109"/>
      <point x="155" y="103"/>
      <point x="155" y="93" type="curve" smooth="yes"/>
      <point x="155" y="81"/>
      <point x="159" y="63"/>
      <point x="159" y="38" type="curve" smooth="yes"/>
      <point x="159" y="-22"/>
      <point x="134" y="-87"/>
    </contour>
  </outline>
</glyph>
<glyph name="equal" format="1">
  <advance width="544"/>
  <unicode hex="003D"/>
  <outline>
    <contour>
      <point x="76" y="470" type="curve"/>
      <point x="63" y="470"/>
      <point x="60" y="464"/>
      <point x="60" y="454" type="curve" smooth="yes"/>
      <point x="60" y="403" type="line" smooth="yes"/>
      <point x="60" y="394"/>
      <point x="63" y="388"/>
      <point x="76" y="388" type="curve" smooth="yes"/>
      <point x="76" y="388"/>
      <point x="241" y="391"/>
      <point x="296" y="391" type="curve" smooth="yes"/>
      <point x="342" y="391"/>
      <point x="480" y="388"/>
      <point x="480" y="388" type="curve"/>
      <point x="493" y="388"/>
      <point x="496" y="394"/>
      <point x="496" y="403" type="curve" smooth="yes"/>
      <point x="496" y="454" type="line" smooth="yes"/>
      <point x="496" y="468"/>
      <point x="491" y="470"/>
      <point x="482" y="470" type="curve" smooth="yes"/>
      <point x="482" y="470"/>
      <point x="351" y="467"/>
      <point x="294" y="467" type="curve" smooth="yes"/>
      <point x="229" y="467"/>
      <point x="76" y="470"/>
    </contour>
    <contour>
      <point x="76" y="253" type="curve"/>
      <point x="63" y="253"/>
      <point x="60" y="247"/>
      <point x="60" y="237" type="curve" smooth="yes"/>
      <point x="60" y="186" type="line" smooth="yes"/>
      <point x="60" y="177"/>
      <point x="63" y="171"/>
      <point x="76" y="171" type="curve" smooth="yes"/>
      <point x="76" y="171"/>
      <point x="241" y="174"/>
      <point x="296" y="174" type="curve" smooth="yes"/>
      <point x="342" y="174"/>
      <point x="480" y="171"/>
      <point x="480" y="171" type="curve"/>
      <point x="493" y="171"/>
      <point x="496" y="177"/>
      <point x="496" y="186" type="curve" smooth="yes"/>
      <point x="496" y="237" type="line" smooth="yes"/>
      <point x="496" y="251"/>
      <point x="488" y="253"/>
      <point x="482" y="253" type="curve" smooth="yes"/>
      <point x="482" y="253"/>
      <point x="351" y="250"/>
      <point x="294" y="250" type="curve" smooth="yes"/>
      <point x="229" y="250"/>
      <point x="76" y="253"/>
    </contour>
  </outline>
</glyph>
<glyph name="bracketright" format="1">
  <advance width="408"/>
  <unicode hex="005D"/>
  <outline>
    <contour>
      <point x="334" y="-42" type="curve" smooth="yes"/>
      <point x="334" y="-112"/>
      <point x="309" y="-138"/>
      <point x="240" y="-138" type="curve" smooth="yes"/>
      <point x="136" y="-138" type="line" smooth="yes"/>
      <point x="116" y="-138"/>
      <point x="103" y="-133"/>
      <point x="89" y="-122" type="curve" smooth="yes"/>
      <point x="78" y="-114"/>
      <point x="68" y="-106"/>
      <point x="55" y="-93" type="curve" smooth="yes"/>
      <point x="48" y="-86"/>
      <point x="43" y="-82"/>
      <point x="43" y="-77" type="curve" smooth="yes"/>
      <point x="43" y="-71"/>
      <point x="49" y="-69"/>
      <point x="60" y="-69" type="curve" smooth="yes"/>
      <point x="213" y="-69" type="line" smooth="yes"/>
      <point x="228" y="-69"/>
      <point x="239" y="-60"/>
      <point x="239" y="-39" type="curve" smooth="yes"/>
      <point x="240" y="12"/>
      <point x="241" y="208"/>
      <point x="241" y="302" type="curve" smooth="yes"/>
      <point x="241" y="344"/>
      <point x="242" y="441"/>
      <point x="242" y="514" type="curve" smooth="yes"/>
      <point x="242" y="604"/>
      <point x="241" y="624"/>
      <point x="214" y="624" type="curve" smooth="yes"/>
      <point x="120" y="624" type="line" smooth="yes"/>
      <point x="111" y="624"/>
      <point x="100" y="629"/>
      <point x="86" y="640" type="curve" smooth="yes"/>
      <point x="76" y="648"/>
      <point x="63" y="660"/>
      <point x="54" y="669" type="curve" smooth="yes"/>
      <point x="46" y="677"/>
      <point x="43" y="681"/>
      <point x="43" y="686" type="curve" smooth="yes"/>
      <point x="43" y="692"/>
      <point x="49" y="693"/>
      <point x="57" y="693" type="curve" smooth="yes"/>
      <point x="272" y="693" type="line" smooth="yes"/>
      <point x="316" y="693"/>
      <point x="336" y="650"/>
      <point x="336" y="611" type="curve" smooth="yes"/>
      <point x="336" y="558"/>
      <point x="329" y="426"/>
      <point x="329" y="312" type="curve" smooth="yes"/>
      <point x="329" y="155"/>
      <point x="334" y="45"/>
    </contour>
  </outline>
</glyph>
<glyph name="asciicircum" format="1">
  <advance width="544"/>
  <unicode hex="005E"/>
  <outline>
    <contour>
      <point x="321" y="686" type="curve" smooth="yes"/>
      <point x="316" y="695"/>
      <point x="313" y="699"/>
      <point x="304" y="699" type="curve" smooth="yes"/>
      <point x="256" y="699" type="line" smooth="yes"/>
      <point x="244" y="699"/>
      <point x="240" y="694"/>
      <point x="236" y="686" type="curve" smooth="yes"/>
      <point x="195" y="603"/>
      <point x="83" y="373"/>
      <point x="46" y="317" type="curve" smooth="yes"/>
      <point x="44" y="314"/>
      <point x="43" y="309"/>
      <point x="43" y="306" type="curve" smooth="yes"/>
      <point x="43" y="302"/>
      <point x="45" y="298"/>
      <point x="51" y="295" type="curve" smooth="yes"/>
      <point x="100" y="270" type="line" smooth="yes"/>
      <point x="103" y="268"/>
      <point x="105" y="267"/>
      <point x="108" y="267" type="curve" smooth="yes"/>
      <point x="112" y="267"/>
      <point x="117" y="271"/>
      <point x="121" y="277" type="curve"/>
      <point x="121" y="277"/>
      <point x="177" y="397"/>
      <point x="203" y="446" type="curve"/>
      <point x="278" y="589" type="line"/>
      <point x="348" y="455" type="line" smooth="yes"/>
      <point x="370" y="412"/>
      <point x="428" y="292"/>
      <point x="435" y="278" type="curve" smooth="yes"/>
      <point x="438" y="271"/>
      <point x="441" y="265"/>
      <point x="449" y="265" type="curve" smooth="yes"/>
      <point x="452" y="265"/>
      <point x="455" y="267"/>
      <point x="458" y="268" type="curve" smooth="yes"/>
      <point x="503" y="293" type="line" smooth="yes"/>
      <point x="511" y="297"/>
      <point x="513" y="300"/>
      <point x="513" y="305" type="curve" smooth="yes"/>
      <point x="513" y="308"/>
      <point x="512" y="312"/>
      <point x="510" y="316" type="curve"/>
      <point x="509" y="316"/>
      <point x="423" y="479"/>
      <point x="407" y="509" type="curve" smooth="yes"/>
      <point x="374" y="571"/>
      <point x="337" y="656"/>
    </contour>
  </outline>
</glyph>
<glyph name="verticalbar" format="1">
  <advance width="326"/>
  <unicode hex="007C"/>
  <outline>
    <contour>
      <point x="181" y="-30" type="line"/>
      <point x="191" y="-30"/>
      <point x="197" y="-23"/>
      <point x="197" y="-14" type="curve" smooth="yes"/>
      <point x="199" y="128"/>
      <point x="200" y="205"/>
      <point x="200" y="290" type="curve" smooth="yes"/>
      <point x="200" y="375"/>
      <point x="198" y="457"/>
      <point x="197" y="566" type="curve" smooth="yes"/>
      <point x="197" y="575"/>
      <point x="191" y="582"/>
      <point x="181" y="582" type="curve" smooth="yes"/>
      <point x="144" y="582" type="line" smooth="yes"/>
      <point x="134" y="582"/>
      <point x="128" y="575"/>
      <point x="128" y="565" type="curve" smooth="yes"/>
      <point x="126" y="458"/>
      <point x="125" y="375"/>
      <point x="125" y="290" type="curve" smooth="yes"/>
      <point x="125" y="205"/>
      <point x="127" y="116"/>
      <point x="128" y="-13" type="curve" smooth="yes"/>
      <point x="128" y="-23"/>
      <point x="134" y="-30"/>
      <point x="144" y="-30" type="curve" smooth="yes"/>
    </contour>
  </outline>
</glyph>
<glyph name="logicalnot" format="1">
  <advance width="544"/>
  <unicode hex="00AC"/>
  <outline>
    <contour>
      <point x="457" y="353" type="curve" smooth="yes"/>
      <point x="385" y="354"/>
      <point x="76" y="357"/>
      <point x="76" y="357" type="curve"/>
      <point x="63" y="357"/>
      <point x="60" y="351"/>
      <point x="60" y="341" type="curve" smooth="yes"/>
      <point x="60" y="290" type="line" smooth="yes"/>
      <point x="60" y="281"/>
      <point x="63" y="275"/>
      <point x="76" y="275" type="curve" smooth="yes"/>
      <point x="76" y="275"/>
      <point x="326" y="279"/>
      <point x="396" y="280" type="curve"/>
      <point x="395" y="207"/>
      <point x="393" y="111"/>
      <point x="393" y="111" type="curve"/>
      <point x="393" y="98"/>
      <point x="399" y="95"/>
      <point x="409" y="95" type="curve" smooth="yes"/>
      <point x="460" y="95" type="line" smooth="yes"/>
      <point x="469" y="95"/>
      <point x="475" y="98"/>
      <point x="475" y="111" type="curve" smooth="yes"/>
      <point x="475" y="111"/>
      <point x="472" y="266"/>
      <point x="471" y="337" type="curve"/>
      <point x="471" y="351"/>
      <point x="466" y="353"/>
    </contour>
  </outline>
</glyph>
<glyph name="degree" format="1">
  <advance width="376"/>
  <unicode hex="00B0"/>
  <outline>
    <contour>
      <point x="45" y="575" type="curve" smooth="yes"/>
      <point x="45" y="484"/>
      <point x="104" y="441"/>
      <point x="181" y="441" type="curve" smooth="yes"/>
      <point x="258" y="441"/>
      <point x="306" y="494"/>
      <point x="321" y="529" type="curve" smooth="yes"/>
      <point x="327" y="541"/>
      <point x="331" y="559"/>
      <point x="331" y="575" type="curve" smooth="yes"/>
      <point x="331" y="636"/>
      <point x="296" y="710"/>
      <point x="185" y="710" type="curve" smooth="yes"/>
      <point x="98" y="710"/>
      <point x="45" y="640"/>
    </contour>
    <contour>
      <point x="201" y="511" type="curve" smooth="yes"/>
      <point x="148" y="511"/>
      <point x="117" y="530"/>
      <point x="117" y="579" type="curve" smooth="yes"/>
      <point x="117" y="596"/>
      <point x="118" y="601"/>
      <point x="120" y="608" type="curve" smooth="yes"/>
      <point x="125" y="625"/>
      <point x="142" y="637"/>
      <point x="170" y="637" type="curve" smooth="yes"/>
      <point x="239" y="637"/>
      <point x="255" y="600"/>
      <point x="255" y="564" type="curve" smooth="yes"/>
      <point x="255" y="515"/>
      <point x="223" y="511"/>
    </contour>
  </outline>
</glyph>
<glyph name="plusminus" format="1">
  <advance width="544"/>
  <unicode hex="00B1"/>
  <outline>
    <contour>
      <point x="84" y="84" type="curve"/>
      <point x="71" y="84"/>
      <point x="68" y="78"/>
      <point x="68" y="68" type="curve" smooth="yes"/>
      <point x="68" y="17" type="line" smooth="yes"/>
      <point x="68" y="8"/>
      <point x="71" y="2"/>
      <point x="84" y="2" type="curve" smooth="yes"/>
      <point x="84" y="2"/>
      <point x="224" y="5"/>
      <point x="279" y="5" type="curve" smooth="yes"/>
      <point x="325" y="5"/>
      <point x="471" y="2"/>
      <point x="471" y="2" type="curve"/>
      <point x="484" y="2"/>
      <point x="487" y="8"/>
      <point x="487" y="17" type="curve" smooth="yes"/>
      <point x="487" y="68" type="line" smooth="yes"/>
      <point x="487" y="82"/>
      <point x="479" y="84"/>
      <point x="473" y="84" type="curve" smooth="yes"/>
      <point x="473" y="84"/>
      <point x="334" y="81"/>
      <point x="277" y="81" type="curve" smooth="yes"/>
      <point x="212" y="81"/>
      <point x="84" y="84"/>
    </contour>
    <contour>
      <point x="236" y="138" type="curve"/>
      <point x="236" y="125"/>
      <point x="242" y="122"/>
      <point x="252" y="122" type="curve" smooth="yes"/>
      <point x="303" y="122" type="line" smooth="yes"/>
      <point x="312" y="122"/>
      <point x="318" y="125"/>
      <point x="318" y="138" type="curve" smooth="yes"/>
      <point x="318" y="138"/>
      <point x="316" y="228"/>
      <point x="315" y="299" type="curve"/>
      <point x="369" y="298"/>
      <point x="471" y="296"/>
      <point x="471" y="296" type="curve"/>
      <point x="484" y="296"/>
      <point x="487" y="302"/>
      <point x="487" y="311" type="curve" smooth="yes"/>
      <point x="487" y="362" type="line" smooth="yes"/>
      <point x="487" y="376"/>
      <point x="482" y="378"/>
      <point x="473" y="378" type="curve" smooth="yes"/>
      <point x="473" y="378"/>
      <point x="377" y="375"/>
      <point x="315" y="375" type="curve"/>
      <point x="315" y="431"/>
      <point x="318" y="530"/>
      <point x="318" y="530" type="curve"/>
      <point x="318" y="543"/>
      <point x="312" y="546"/>
      <point x="303" y="546" type="curve" smooth="yes"/>
      <point x="252" y="546" type="line" smooth="yes"/>
      <point x="238" y="546"/>
      <point x="236" y="538"/>
      <point x="236" y="532" type="curve" smooth="yes"/>
      <point x="236" y="532"/>
      <point x="238" y="438"/>
      <point x="239" y="375" type="curve"/>
      <point x="167" y="376"/>
      <point x="84" y="378"/>
      <point x="84" y="378" type="curve"/>
      <point x="71" y="378"/>
      <point x="68" y="372"/>
      <point x="68" y="362" type="curve" smooth="yes"/>
      <point x="68" y="311" type="line" smooth="yes"/>
      <point x="68" y="302"/>
      <point x="71" y="296"/>
      <point x="84" y="296" type="curve" smooth="yes"/>
      <point x="84" y="296"/>
      <point x="169" y="298"/>
      <point x="239" y="299" type="curve"/>
      <point x="238" y="226"/>
      <point x="236" y="138"/>
    </contour>
  </outline>
</glyph>
<glyph name="periodcentered" format="1">
  <advance width="365"/>
  <unicode hex="00B7"/>
  <outline>
    <contour>
      <point x="116" y="271" type="curve"/>
      <point x="132" y="250"/>
      <point x="166" y="219"/>
      <point x="198" y="200" type="curve"/>
      <point x="202" y="197"/>
      <point x="206" y="196"/>
      <point x="210" y="196" type="curve"/>
      <point x="214" y="196"/>
      <point x="219" y="199"/>
      <point x="222" y="202" type="curve"/>
      <point x="239" y="218"/>
      <point x="268" y="251"/>
      <point x="287" y="277" type="curve"/>
      <point x="290" y="280"/>
      <point x="292" y="286"/>
      <point x="292" y="290" type="curve"/>
      <point x="292" y="295"/>
      <point x="289" y="300"/>
      <point x="284" y="303" type="curve"/>
      <point x="258" y="319"/>
      <point x="225" y="349"/>
      <point x="207" y="367" type="curve"/>
      <point x="202" y="372"/>
      <point x="199" y="374"/>
      <point x="195" y="374" type="curve"/>
      <point x="190" y="374"/>
      <point x="185" y="371"/>
      <point x="181" y="366" type="curve"/>
      <point x="117" y="296" type="line"/>
      <point x="112" y="291"/>
      <point x="111" y="286"/>
      <point x="111" y="282" type="curve"/>
      <point x="111" y="277"/>
      <point x="114" y="274"/>
    </contour>
  </outline>
</glyph>
<glyph name="guillemotright" format="1">
  <advance width="404"/>
  <unicode hex="00BB"/>
  <outline>
    <contour>
      <point x="317" y="184" type="curve" smooth="yes"/>
      <point x="332" y="204"/>
      <point x="362" y="246"/>
      <point x="374" y="271" type="curve" smooth="yes"/>
      <point x="376" y="275"/>
      <point x="378" y="281"/>
      <point x="378" y="286" type="curve" smooth="yes"/>
      <point x="378" y="292"/>
      <point x="376" y="298"/>
      <point x="369" y="309" type="curve" smooth="yes"/>
      <point x="354" y="334"/>
      <point x="309" y="383"/>
      <point x="282" y="406" type="curve" smooth="yes"/>
      <point x="277" y="410"/>
      <point x="274" y="411"/>
      <point x="272" y="411" type="curve" smooth="yes"/>
      <point x="269" y="411"/>
      <point x="265" y="409"/>
      <point x="261" y="404" type="curve" smooth="yes"/>
      <point x="242" y="381"/>
      <point x="232" y="365"/>
      <point x="219" y="344" type="curve" smooth="yes"/>
      <point x="213" y="334"/>
      <point x="214" y="331"/>
      <point x="213" y="329" type="curve"/>
      <point x="213" y="323"/>
      <point x="215" y="320"/>
      <point x="217" y="318" type="curve" smooth="yes"/>
      <point x="263" y="268" type="line" smooth="yes"/>
      <point x="266" y="265"/>
      <point x="268" y="259"/>
      <point x="268" y="256" type="curve" smooth="yes"/>
      <point x="268" y="253"/>
      <point x="267" y="249"/>
      <point x="265" y="244" type="curve" smooth="yes"/>
      <point x="224" y="156" type="line" smooth="yes"/>
      <point x="222" y="152"/>
      <point x="220" y="146"/>
      <point x="220" y="143" type="curve" smooth="yes"/>
      <point x="220" y="139"/>
      <point x="223" y="136"/>
      <point x="228" y="136" type="curve" smooth="yes"/>
      <point x="230" y="136"/>
      <point x="233" y="136"/>
      <point x="237" y="138" type="curve" smooth="yes"/>
      <point x="245" y="141"/>
      <point x="283" y="159"/>
      <point x="288" y="162" type="curve" smooth="yes"/>
      <point x="295" y="166"/>
      <point x="308" y="172"/>
    </contour>
    <contour>
      <point x="128" y="184" type="curve" smooth="yes"/>
      <point x="143" y="204"/>
      <point x="173" y="246"/>
      <point x="185" y="271" type="curve" smooth="yes"/>
      <point x="187" y="275"/>
      <point x="189" y="281"/>
      <point x="189" y="286" type="curve" smooth="yes"/>
      <point x="189" y="292"/>
      <point x="187" y="298"/>
      <point x="180" y="309" type="curve" smooth="yes"/>
      <point x="165" y="334"/>
      <point x="120" y="383"/>
      <point x="93" y="406" type="curve" smooth="yes"/>
      <point x="88" y="410"/>
      <point x="85" y="411"/>
      <point x="83" y="411" type="curve" smooth="yes"/>
      <point x="80" y="411"/>
      <point x="76" y="409"/>
      <point x="72" y="404" type="curve" smooth="yes"/>
      <point x="53" y="381"/>
      <point x="43" y="365"/>
      <point x="30" y="344" type="curve" smooth="yes"/>
      <point x="24" y="334"/>
      <point x="25" y="331"/>
      <point x="24" y="329" type="curve"/>
      <point x="24" y="323"/>
      <point x="26" y="320"/>
      <point x="28" y="318" type="curve" smooth="yes"/>
      <point x="74" y="268" type="line" smooth="yes"/>
      <point x="77" y="265"/>
      <point x="79" y="259"/>
      <point x="79" y="256" type="curve" smooth="yes"/>
      <point x="79" y="253"/>
      <point x="78" y="249"/>
      <point x="76" y="244" type="curve" smooth="yes"/>
      <point x="35" y="156" type="line" smooth="yes"/>
      <point x="33" y="152"/>
      <point x="31" y="146"/>
      <point x="31" y="143" type="curve" smooth="yes"/>
      <point x="31" y="139"/>
      <point x="34" y="136"/>
      <point x="39" y="136" type="curve" smooth="yes"/>
      <point x="41" y="136"/>
      <point x="44" y="136"/>
      <point x="48" y="138" type="curve" smooth="yes"/>
      <point x="56" y="141"/>
      <point x="94" y="159"/>
      <point x="99" y="162" type="curve" smooth="yes"/>
      <point x="106" y="166"/>
      <point x="119" y="172"/>
    </contour>
  </outline>
</glyph>
<glyph name="multiply" format="1">
  <advance width="544"/>
  <unicode hex="00D7"/>
  <outline>
    <contour>
      <point x="62" y="156" type="curve"/>
      <point x="58" y="152"/>
      <point x="56" y="148"/>
      <point x="56" y="145" type="curve" smooth="yes"/>
      <point x="56" y="141"/>
      <point x="58" y="138"/>
      <point x="62" y="134" type="curve" smooth="yes"/>
      <point x="98" y="98" type="line" smooth="yes"/>
      <point x="101" y="95"/>
      <point x="104" y="93"/>
      <point x="108" y="93" type="curve" smooth="yes"/>
      <point x="111" y="93"/>
      <point x="115" y="95"/>
      <point x="120" y="99" type="curve"/>
      <point x="120" y="99"/>
      <point x="230" y="209"/>
      <point x="279" y="260" type="curve"/>
      <point x="323" y="214"/>
      <point x="434" y="103"/>
      <point x="434" y="103" type="curve"/>
      <point x="438" y="98"/>
      <point x="442" y="97"/>
      <point x="445" y="97" type="curve" smooth="yes"/>
      <point x="449" y="97"/>
      <point x="453" y="99"/>
      <point x="457" y="103" type="curve" smooth="yes"/>
      <point x="493" y="138" type="line" smooth="yes"/>
      <point x="497" y="142"/>
      <point x="499" y="146"/>
      <point x="499" y="150" type="curve" smooth="yes"/>
      <point x="499" y="153"/>
      <point x="497" y="156"/>
      <point x="493" y="160" type="curve"/>
      <point x="493" y="160"/>
      <point x="380" y="267"/>
      <point x="333" y="314" type="curve"/>
      <point x="372" y="352"/>
      <point x="487" y="466"/>
      <point x="487" y="466" type="curve"/>
      <point x="491" y="470"/>
      <point x="493" y="474"/>
      <point x="493" y="477" type="curve" smooth="yes"/>
      <point x="493" y="481"/>
      <point x="491" y="484"/>
      <point x="488" y="488" type="curve" smooth="yes"/>
      <point x="452" y="524" type="line" smooth="yes"/>
      <point x="447" y="529"/>
      <point x="443" y="530"/>
      <point x="440" y="530" type="curve" smooth="yes"/>
      <point x="436" y="530"/>
      <point x="433" y="528"/>
      <point x="431" y="525" type="curve"/>
      <point x="431" y="525"/>
      <point x="323" y="412"/>
      <point x="279" y="368" type="curve"/>
      <point x="235" y="413"/>
      <point x="130" y="523"/>
      <point x="130" y="523" type="curve"/>
      <point x="126" y="527"/>
      <point x="122" y="529"/>
      <point x="119" y="529" type="curve" smooth="yes"/>
      <point x="115" y="529"/>
      <point x="111" y="527"/>
      <point x="107" y="523" type="curve" smooth="yes"/>
      <point x="72" y="487" type="line"/>
      <point x="67" y="483"/>
      <point x="66" y="479"/>
      <point x="66" y="475" type="curve" smooth="yes"/>
      <point x="66" y="472"/>
      <point x="68" y="468"/>
      <point x="71" y="465" type="curve"/>
      <point x="71" y="465"/>
      <point x="178" y="360"/>
      <point x="225" y="314" type="curve"/>
      <point x="174" y="264"/>
      <point x="62" y="156"/>
    </contour>
  </outline>
</glyph>
<glyph name="divide" format="1">
  <advance width="544"/>
  <unicode hex="00F7"/>
  <outline>
    <contour>
      <point x="329" y="466" type="curve" smooth="yes"/>
      <point x="329" y="493"/>
      <point x="306" y="515"/>
      <point x="280" y="515" type="curve" smooth="yes"/>
      <point x="252" y="515"/>
      <point x="230" y="493"/>
      <point x="230" y="466" type="curve" smooth="yes"/>
      <point x="230" y="440"/>
      <point x="252" y="418"/>
      <point x="280" y="418" type="curve" smooth="yes"/>
      <point x="306" y="418"/>
      <point x="329" y="440"/>
    </contour>
    <contour>
      <point x="328" y="166" type="curve" smooth="yes"/>
      <point x="328" y="193"/>
      <point x="305" y="215"/>
      <point x="279" y="215" type="curve" smooth="yes"/>
      <point x="251" y="215"/>
      <point x="229" y="193"/>
      <point x="229" y="166" type="curve" smooth="yes"/>
      <point x="229" y="140"/>
      <point x="251" y="118"/>
      <point x="279" y="118" type="curve" smooth="yes"/>
      <point x="305" y="118"/>
      <point x="328" y="140"/>
    </contour>
    <component base="minus"/>
  </outline>
</glyph>
<glyph name="uni0308" format="1">
  <advance width="0"/>
  <unicode hex="0308"/>
  <outline>
    <contour>
      <point x="-353" y="695" type="curve" smooth="yes"/>
      <point x="-339" y="675"/>
      <point x="-312" y="652"/>
      <point x="-292" y="640" type="curve" smooth="yes"/>
      <point x="-290" y="639"/>
      <point x="-287" y="638"/>
      <point x="-283" y="638" type="curve" smooth="yes"/>
      <point x="-280" y="638"/>
      <point x="-277" y="640"/>
      <point x="-275" y="642" type="curve" smooth="yes"/>
      <point x="-261" y="656"/>
      <point x="-239" y="679"/>
      <point x="-226" y="698" type="curve" smooth="yes"/>
      <point x="-224" y="702"/>
      <point x="-222" y="706"/>
      <point x="-222" y="710" type="curve" smooth="yes"/>
      <point x="-222" y="715"/>
      <point x="-225" y="719"/>
      <point x="-229" y="722" type="curve" smooth="yes"/>
      <point x="-244" y="732"/>
      <point x="-271" y="756"/>
      <point x="-286" y="769" type="curve" smooth="yes"/>
      <point x="-290" y="772"/>
      <point x="-292" y="774"/>
      <point x="-296" y="774" type="curve" smooth="yes"/>
      <point x="-299" y="774"/>
      <point x="-303" y="772"/>
      <point x="-306" y="768" type="curve" smooth="yes"/>
      <point x="-315" y="758"/>
      <point x="-342" y="728"/>
      <point x="-354" y="715" type="curve" smooth="yes"/>
      <point x="-357" y="712"/>
      <point x="-358" y="708"/>
      <point x="-358" y="705" type="curve" smooth="yes"/>
      <point x="-358" y="702"/>
      <point x="-356" y="698"/>
    </contour>
    <contour>
      <point x="-172" y="697" type="curve" smooth="yes"/>
      <point x="-157" y="678"/>
      <point x="-131" y="655"/>
      <point x="-110" y="643" type="curve" smooth="yes"/>
      <point x="-108" y="641"/>
      <point x="-105" y="640"/>
      <point x="-102" y="640" type="curve" smooth="yes"/>
      <point x="-99" y="640"/>
      <point x="-96" y="642"/>
      <point x="-93" y="644" type="curve" smooth="yes"/>
      <point x="-79" y="659"/>
      <point x="-57" y="681"/>
      <point x="-45" y="700" type="curve" smooth="yes"/>
      <point x="-43" y="704"/>
      <point x="-40" y="709"/>
      <point x="-40" y="713" type="curve" smooth="yes"/>
      <point x="-40" y="717"/>
      <point x="-43" y="721"/>
      <point x="-47" y="724" type="curve" smooth="yes"/>
      <point x="-62" y="734"/>
      <point x="-89" y="758"/>
      <point x="-104" y="771" type="curve" smooth="yes"/>
      <point x="-108" y="774"/>
      <point x="-110" y="776"/>
      <point x="-114" y="776" type="curve" smooth="yes"/>
      <point x="-118" y="776"/>
      <point x="-122" y="774"/>
      <point x="-125" y="770" type="curve" smooth="yes"/>
      <point x="-133" y="760"/>
      <point x="-160" y="730"/>
      <point x="-173" y="717" type="curve" smooth="yes"/>
      <point x="-176" y="714"/>
      <point x="-176" y="710"/>
      <point x="-176" y="707" type="curve" smooth="yes"/>
      <point x="-176" y="704"/>
      <point x="-174" y="700"/>
    </contour>
  </outline>
</glyph>
<glyph name="uni059F" format="1">
  <advance width="0"/>
  <unicode hex="059F"/>
  <outline>
    <contour>
      <point x="69" y="804" type="curve" smooth="yes"/>
      <point x="69" y="744"/>
      <point x="116" y="697"/>
      <point x="176" y="697" type="curve" smooth="yes"/>
      <point x="188" y="697"/>
      <point x="200" y="699"/>
      <point x="211" y="702" type="curve"/>
      <point x="227" y="683"/>
      <point x="246" y="660"/>
      <point x="252" y="654" type="curve" smooth="yes"/>
      <point x="257" y="649"/>
      <point x="261" y="647"/>
      <point x="264" y="647" type="curve" smooth="yes"/>
      <point x="267" y="647"/>
      <point x="269" y="648"/>
      <point x="272" y="650" type="curve" smooth="yes"/>
      <point x="290" y="662" type="line" smooth="yes"/>
      <point x="294" y="665"/>
      <point x="297" y="668"/>
      <point x="297" y="672" type="curve" smooth="yes"/>
      <point x="297" y="675"/>
      <point x="295" y="679"/>
      <point x="293" y="683" type="curve" smooth="yes"/>
      <point x="292" y="686"/>
      <point x="275" y="714"/>
      <point x="261" y="737" type="curve"/>
      <point x="276" y="755"/>
      <point x="284" y="778"/>
      <point x="284" y="804" type="curve" smooth="yes"/>
      <point x="284" y="864"/>
      <point x="236" y="912"/>
      <point x="176" y="912" type="curve" smooth="yes"/>
      <point x="116" y="912"/>
      <point x="69" y="864"/>
    </contour>
    <contour>
      <point x="118" y="804" type="curve" smooth="yes"/>
      <point x="118" y="836"/>
      <point x="144" y="862"/>
      <point x="175" y="862" type="curve" smooth="yes"/>
      <point x="207" y="862"/>
      <point x="233" y="836"/>
      <point x="233" y="804" type="curve" smooth="yes"/>
      <point x="233" y="773"/>
      <point x="207" y="747"/>
      <point x="175" y="747" type="curve" smooth="yes"/>
      <point x="144" y="747"/>
      <point x="118" y="773"/>
    </contour>
    <contour>
      <point x="538" y="804" type="curve" smooth="yes"/>
      <point x="538" y="744"/>
      <point x="491" y="697"/>
      <point x="431" y="697" type="curve" smooth="yes"/>
      <point x="419" y="697"/>
      <point x="407" y="699"/>
      <point x="396" y="702" type="curve"/>
      <point x="380" y="683"/>
      <point x="361" y="660"/>
      <point x="355" y="654" type="curve" smooth="yes"/>
      <point x="350" y="649"/>
      <point x="346" y="647"/>
      <point x="343" y="647" type="curve" smooth="yes"/>
      <point x="340" y="647"/>
      <point x="338" y="648"/>
      <point x="335" y="650" type="curve" smooth="yes"/>
      <point x="317" y="662" type="line" smooth="yes"/>
      <point x="313" y="665"/>
      <point x="310" y="668"/>
      <point x="310" y="672" type="curve" smooth="yes"/>
      <point x="310" y="675"/>
      <point x="312" y="679"/>
      <point x="314" y="683" type="curve" smooth="yes"/>
      <point x="315" y="686"/>
      <point x="332" y="714"/>
      <point x="346" y="737" type="curve"/>
      <point x="331" y="755"/>
      <point x="323" y="778"/>
      <point x="323" y="804" type="curve" smooth="yes"/>
      <point x="323" y="864"/>
      <point x="371" y="912"/>
      <point x="431" y="912" type="curve" smooth="yes"/>
      <point x="491" y="912"/>
      <point x="538" y="864"/>
    </contour>
    <contour>
      <point x="489" y="804" type="curve" smooth="yes"/>
      <point x="489" y="836"/>
      <point x="463" y="862"/>
      <point x="432" y="862" type="curve" smooth="yes"/>
      <point x="400" y="862"/>
      <point x="374" y="836"/>
      <point x="374" y="804" type="curve" smooth="yes"/>
      <point x="374" y="773"/>
      <point x="400" y="747"/>
      <point x="432" y="747" type="curve" smooth="yes"/>
      <point x="463" y="747"/>
      <point x="489" y="773"/>
    </contour>
  </outline>
</glyph>
<glyph name="uni05A8" format="1">
  <advance width="0"/>
  <unicode hex="05A8"/>
  <outline>
    <contour>
      <point x="112" y="875" type="curve" smooth="yes"/>
      <point x="200" y="846"/>
      <point x="216" y="784"/>
      <point x="216" y="691" type="curve" smooth="yes"/>
      <point x="216" y="679"/>
      <point x="210" y="676"/>
      <point x="201" y="676" type="curve" smooth="yes"/>
      <point x="177" y="676" type="line" smooth="yes"/>
      <point x="168" y="676"/>
      <point x="163" y="679"/>
      <point x="163" y="691" type="curve" smooth="yes"/>
      <point x="163" y="774"/>
      <point x="149" y="804"/>
      <point x="86" y="824" type="curve" smooth="yes"/>
      <point x="80" y="826"/>
      <point x="77" y="830"/>
      <point x="77" y="834" type="curve" smooth="yes"/>
      <point x="77" y="837"/>
      <point x="79" y="842"/>
      <point x="81" y="845" type="curve"/>
      <point x="91" y="870" type="line"/>
      <point x="94" y="875"/>
      <point x="98" y="878"/>
      <point x="103" y="878" type="curve" smooth="yes"/>
      <point x="106" y="878"/>
      <point x="108" y="876"/>
    </contour>
  </outline>
</glyph>
<glyph name="tserehebrew" format="1">
  <advance width="0"/>
  <unicode hex="05B5"/>
  <outline>
    <contour>
      <point x="131" y="-126" type="curve" smooth="yes"/>
      <point x="131" y="-149"/>
      <point x="113" y="-167"/>
      <point x="91" y="-167" type="curve" smooth="yes"/>
      <point x="68" y="-167"/>
      <point x="50" y="-149"/>
      <point x="50" y="-126" type="curve" smooth="yes"/>
      <point x="50" y="-104"/>
      <point x="68" y="-85"/>
      <point x="91" y="-85" type="curve" smooth="yes"/>
      <point x="113" y="-85"/>
      <point x="131" y="-104"/>
    </contour>
    <contour>
      <point x="358" y="-126" type="curve" smooth="yes"/>
      <point x="358" y="-149"/>
      <point x="340" y="-167"/>
      <point x="318" y="-167" type="curve" smooth="yes"/>
      <point x="295" y="-167"/>
      <point x="277" y="-149"/>
      <point x="277" y="-126" type="curve" smooth="yes"/>
      <point x="277" y="-104"/>
      <point x="295" y="-85"/>
      <point x="318" y="-85" type="curve" smooth="yes"/>
      <point x="340" y="-85"/>
      <point x="358" y="-104"/>
    </contour>
  </outline>
</glyph>
<glyph name="afii57645" format="1">
  <advance width="405"/>
  <unicode hex="05BE"/>
  <outline>
    <contour>
      <point x="92" y="544" type="curve" smooth="yes"/>
      <point x="101" y="552"/>
      <point x="109" y="552"/>
      <point x="116" y="552" type="curve" smooth="yes"/>
      <point x="351" y="552" type="line" smooth="yes"/>
      <point x="362" y="552"/>
      <point x="366" y="549"/>
      <point x="366" y="543" type="curve" smooth="yes"/>
      <point x="366" y="539"/>
      <point x="363" y="532"/>
      <point x="359" y="526" type="curve" smooth="yes"/>
      <point x="343" y="502"/>
      <point x="330" y="483"/>
      <point x="314" y="465" type="curve" smooth="yes"/>
      <point x="307" y="457"/>
      <point x="301" y="457"/>
      <point x="290" y="457" type="curve" smooth="yes"/>
      <point x="54" y="457" type="line" smooth="yes"/>
      <point x="43" y="457"/>
      <point x="39" y="461"/>
      <point x="39" y="466" type="curve" smooth="yes"/>
      <point x="39" y="469"/>
      <point x="40" y="472"/>
      <point x="41" y="474" type="curve" smooth="yes"/>
      <point x="57" y="500"/>
      <point x="81" y="533"/>
    </contour>
  </outline>
</glyph>
<glyph name="afii67842" format="1">
  <advance width="326"/>
  <unicode hex="05C0"/>
  <outline>
    <contour>
      <point x="131" y="-35" type="curve"/>
      <point x="131" y="-43"/>
      <point x="133" y="-52"/>
      <point x="145" y="-52" type="curve"/>
      <point x="181" y="-52" type="line" smooth="yes"/>
      <point x="192" y="-52"/>
      <point x="196" y="-44"/>
      <point x="196" y="-36" type="curve"/>
      <point x="200" y="143"/>
      <point x="202" y="214"/>
      <point x="202" y="278" type="curve"/>
      <point x="202" y="360"/>
      <point x="199" y="476"/>
      <point x="196" y="606" type="curve"/>
      <point x="196" y="614"/>
      <point x="192" y="622"/>
      <point x="181" y="622" type="curve"/>
      <point x="145" y="622" type="line" smooth="yes"/>
      <point x="133" y="622"/>
      <point x="131" y="613"/>
      <point x="131" y="605" type="curve"/>
      <point x="127" y="478"/>
      <point x="124" y="360"/>
      <point x="124" y="278" type="curve"/>
      <point x="124" y="214"/>
      <point x="128" y="119"/>
    </contour>
  </outline>
</glyph>
<glyph name="afii57804" format="1">
  <advance width="727"/>
  <unicode hex="05C1"/>
  <outline>
    <contour>
      <point x="582" y="669" type="curve" smooth="yes"/>
      <point x="582" y="647"/>
      <point x="563" y="629"/>
      <point x="541" y="629" type="curve" smooth="yes"/>
      <point x="518" y="629"/>
      <point x="500" y="647"/>
      <point x="500" y="669" type="curve" smooth="yes"/>
      <point x="500" y="692"/>
      <point x="518" y="710"/>
      <point x="541" y="710" type="curve" smooth="yes"/>
      <point x="563" y="710"/>
      <point x="582" y="692"/>
    </contour>
  </outline>
</glyph>
<glyph name="afii57658" format="1">
  <advance width="388"/>
  <unicode hex="05C3"/>
  <outline>
    <contour>
      <point x="125" y="317" type="curve" smooth="yes"/>
      <point x="144" y="291"/>
      <point x="179" y="261"/>
      <point x="206" y="245" type="curve" smooth="yes"/>
      <point x="209" y="243"/>
      <point x="213" y="242"/>
      <point x="217" y="242" type="curve" smooth="yes"/>
      <point x="221" y="242"/>
      <point x="225" y="244"/>
      <point x="228" y="247" type="curve" smooth="yes"/>
      <point x="247" y="266"/>
      <point x="276" y="296"/>
      <point x="292" y="321" type="curve" smooth="yes"/>
      <point x="295" y="326"/>
      <point x="298" y="332"/>
      <point x="298" y="337" type="curve" smooth="yes"/>
      <point x="298" y="343"/>
      <point x="294" y="348"/>
      <point x="289" y="352" type="curve" smooth="yes"/>
      <point x="269" y="365"/>
      <point x="234" y="397"/>
      <point x="214" y="414" type="curve" smooth="yes"/>
      <point x="209" y="418"/>
      <point x="206" y="421"/>
      <point x="201" y="421" type="curve" smooth="yes"/>
      <point x="196" y="421"/>
      <point x="191" y="418"/>
      <point x="187" y="413" type="curve" smooth="yes"/>
      <point x="176" y="400"/>
      <point x="140" y="360"/>
      <point x="124" y="343" type="curve" smooth="yes"/>
      <point x="120" y="339"/>
      <point x="119" y="334"/>
      <point x="119" y="330" type="curve" smooth="yes"/>
      <point x="119" y="326"/>
      <point x="122" y="321"/>
    </contour>
    <contour>
      <point x="125" y="54" type="curve" smooth="yes"/>
      <point x="144" y="28"/>
      <point x="179" y="-2"/>
      <point x="206" y="-18" type="curve" smooth="yes"/>
      <point x="209" y="-20"/>
      <point x="213" y="-21"/>
      <point x="217" y="-21" type="curve" smooth="yes"/>
      <point x="221" y="-21"/>
      <point x="225" y="-19"/>
      <point x="228" y="-16" type="curve" smooth="yes"/>
      <point x="247" y="3"/>
      <point x="276" y="33"/>
      <point x="292" y="58" type="curve" smooth="yes"/>
      <point x="295" y="63"/>
      <point x="298" y="69"/>
      <point x="298" y="74" type="curve" smooth="yes"/>
      <point x="298" y="80"/>
      <point x="294" y="85"/>
      <point x="289" y="89" type="curve" smooth="yes"/>
      <point x="269" y="102"/>
      <point x="234" y="134"/>
      <point x="214" y="151" type="curve" smooth="yes"/>
      <point x="209" y="155"/>
      <point x="206" y="158"/>
      <point x="201" y="158" type="curve" smooth="yes"/>
      <point x="196" y="158"/>
      <point x="191" y="155"/>
      <point x="187" y="150" type="curve" smooth="yes"/>
      <point x="176" y="137"/>
      <point x="140" y="97"/>
      <point x="124" y="80" type="curve" smooth="yes"/>
      <point x="120" y="76"/>
      <point x="119" y="71"/>
      <point x="119" y="67" type="curve" smooth="yes"/>
      <point x="119" y="63"/>
      <point x="122" y="58"/>
    </contour>
  </outline>
</glyph>
<glyph name="alefhebrew" format="1">
  <advance width="726"/>
  <unicode hex="05D0"/>
  <outline>
    <contour>
      <point x="111" y="76" type="curve" smooth="yes"/>
      <point x="111" y="63"/>
      <point x="101" y="42"/>
      <point x="94" y="24" type="curve" smooth="yes"/>
      <point x="91" y="17"/>
      <point x="89" y="10"/>
      <point x="89" y="7" type="curve" smooth="yes"/>
      <point x="89" y="3"/>
      <point x="91" y="0"/>
      <point x="98" y="0" type="curve" smooth="yes"/>
      <point x="228" y="0" type="line" smooth="yes"/>
      <point x="239" y="0"/>
      <point x="246" y="5"/>
      <point x="251" y="12" type="curve" smooth="yes"/>
      <point x="266" y="34"/>
      <point x="301" y="110"/>
      <point x="301" y="120" type="curve" smooth="yes"/>
      <point x="301" y="128"/>
      <point x="296" y="131"/>
      <point x="288" y="131" type="curve" smooth="yes"/>
      <point x="246" y="131" type="line" smooth="yes"/>
      <point x="221" y="131"/>
      <point x="208" y="157"/>
      <point x="208" y="194" type="curve" smooth="yes"/>
      <point x="208" y="230"/>
      <point x="225" y="300"/>
      <point x="240" y="329" type="curve" smooth="yes"/>
      <point x="244" y="337"/>
      <point x="248" y="340"/>
      <point x="252" y="340" type="curve" smooth="yes"/>
      <point x="253" y="340"/>
      <point x="259" y="337"/>
      <point x="264" y="333" type="curve" smooth="yes"/>
      <point x="300" y="304"/>
      <point x="344" y="263"/>
      <point x="390" y="218" type="curve" smooth="yes"/>
      <point x="499" y="112"/>
      <point x="549" y="56"/>
      <point x="613" y="-19" type="curve" smooth="yes"/>
      <point x="616" y="-22"/>
      <point x="618" y="-25"/>
      <point x="622" y="-25" type="curve" smooth="yes"/>
      <point x="625" y="-25"/>
      <point x="629" y="-22"/>
      <point x="633" y="-15" type="curve" smooth="yes"/>
      <point x="644" y="5"/>
      <point x="660" y="36"/>
      <point x="679" y="74" type="curve" smooth="yes"/>
      <point x="681" y="78"/>
      <point x="683" y="84"/>
      <point x="683" y="88" type="curve" smooth="yes"/>
      <point x="683" y="92"/>
      <point x="681" y="94"/>
      <point x="678" y="98" type="curve" smooth="yes"/>
      <point x="658" y="124"/>
      <point x="578" y="215"/>
      <point x="552" y="241" type="curve" smooth="yes"/>
      <point x="550" y="243"/>
      <point x="547" y="248"/>
      <point x="547" y="250" type="curve" smooth="yes"/>
      <point x="547" y="254"/>
      <point x="549" y="256"/>
      <point x="553" y="263" type="curve" smooth="yes"/>
      <point x="592" y="332"/>
      <point x="636" y="386"/>
      <point x="636" y="474" type="curve" smooth="yes"/>
      <point x="636" y="511"/>
      <point x="621" y="566"/>
      <point x="605" y="590" type="curve" smooth="yes"/>
      <point x="599" y="599"/>
      <point x="595" y="603"/>
      <point x="590" y="603" type="curve" smooth="yes"/>
      <point x="588" y="603"/>
      <point x="584" y="601"/>
      <point x="577" y="593" type="curve" smooth="yes"/>
      <point x="556" y="569"/>
      <point x="516" y="522"/>
      <point x="504" y="506" type="curve" smooth="yes"/>
      <point x="498" y="498"/>
      <point x="495" y="494"/>
      <point x="495" y="486" type="curve" smooth="yes"/>
      <point x="495" y="479"/>
      <point x="498" y="476"/>
      <point x="502" y="467" type="curve" smooth="yes"/>
      <point x="514" y="439"/>
      <point x="522" y="411"/>
      <point x="522" y="380" type="curve" smooth="yes"/>
      <point x="522" y="356"/>
      <point x="517" y="331"/>
      <point x="507" y="305" type="curve" smooth="yes"/>
      <point x="505" y="300"/>
      <point x="502" y="297"/>
      <point x="499" y="297" type="curve" smooth="yes"/>
      <point x="497" y="297"/>
      <point x="494" y="299"/>
      <point x="489" y="304" type="curve" smooth="yes"/>
      <point x="473" y="318"/>
      <point x="440" y="355"/>
      <point x="381" y="409" type="curve" smooth="yes"/>
      <point x="304" y="479"/>
      <point x="225" y="544"/>
      <point x="156" y="598" type="curve" smooth="yes"/>
      <point x="154" y="600"/>
      <point x="148" y="604"/>
      <point x="145" y="604" type="curve" smooth="yes"/>
      <point x="142" y="604"/>
      <point x="138" y="604"/>
      <point x="132" y="595" type="curve" smooth="yes"/>
      <point x="114" y="569"/>
      <point x="84" y="523"/>
      <point x="77" y="510" type="curve" smooth="yes"/>
      <point x="73" y="503"/>
      <point x="73" y="502"/>
      <point x="73" y="498" type="curve" smooth="yes"/>
      <point x="73" y="492"/>
      <point x="78" y="490"/>
      <point x="85" y="483" type="curve" smooth="yes"/>
      <point x="112" y="459"/>
      <point x="157" y="422"/>
      <point x="190" y="393" type="curve" smooth="yes"/>
      <point x="193" y="390"/>
      <point x="197" y="385"/>
      <point x="197" y="382" type="curve" smooth="yes"/>
      <point x="197" y="379"/>
      <point x="195" y="375"/>
      <point x="193" y="372" type="curve" smooth="yes"/>
      <point x="113" y="264"/>
      <point x="110" y="177"/>
      <point x="110" y="120" type="curve" smooth="yes"/>
      <point x="110" y="95"/>
      <point x="111" y="85"/>
    </contour>
  </outline>
</glyph>
<glyph name="vavhebrew" format="1">
  <advance width="407"/>
  <unicode hex="05D5"/>
  <outline>
    <contour>
      <point x="208" y="331" type="curve" smooth="yes"/>
      <point x="219" y="260"/>
      <point x="227" y="81"/>
      <point x="227" y="-5" type="curve" smooth="yes"/>
      <point x="227" y="-15"/>
      <point x="231" y="-26"/>
      <point x="239" y="-26" type="curve" smooth="yes"/>
      <point x="244" y="-26"/>
      <point x="248" y="-23"/>
      <point x="253" y="-17" type="curve" smooth="yes"/>
      <point x="266" y="-1"/>
      <point x="293" y="36"/>
      <point x="307" y="62" type="curve" smooth="yes"/>
      <point x="314" y="75"/>
      <point x="317" y="88"/>
      <point x="317" y="101" type="curve" smooth="yes"/>
      <point x="317" y="263"/>
      <point x="317" y="328"/>
      <point x="313" y="394" type="curve" smooth="yes"/>
      <point x="310" y="447"/>
      <point x="293" y="480"/>
      <point x="269" y="503" type="curve" smooth="yes"/>
      <point x="235" y="537"/>
      <point x="187" y="574"/>
      <point x="158" y="595" type="curve" smooth="yes"/>
      <point x="151" y="600"/>
      <point x="147" y="602"/>
      <point x="144" y="602" type="curve" smooth="yes"/>
      <point x="141" y="602"/>
      <point x="137" y="600"/>
      <point x="133" y="596" type="curve" smooth="yes"/>
      <point x="112" y="575"/>
      <point x="82" y="536"/>
      <point x="59" y="501" type="curve" smooth="yes"/>
      <point x="55" y="495"/>
      <point x="53" y="490"/>
      <point x="53" y="485" type="curve" smooth="yes"/>
      <point x="53" y="479"/>
      <point x="57" y="476"/>
      <point x="63" y="472" type="curve" smooth="yes"/>
      <point x="87" y="456"/>
      <point x="136" y="429"/>
      <point x="172" y="397" type="curve" smooth="yes"/>
      <point x="195" y="376"/>
      <point x="205" y="350"/>
    </contour>
  </outline>
</glyph>
<glyph name="tethebrew" format="1">
  <advance width="726"/>
  <unicode hex="05D8"/>
  <outline>
    <contour>
      <point x="182" y="106" type="curve"/>
      <point x="190" y="77"/>
      <point x="202" y="42"/>
      <point x="220" y="18" type="curve" smooth="yes"/>
      <point x="239" y="-7"/>
      <point x="273" y="-19"/>
      <point x="307" y="-19" type="curve" smooth="yes"/>
      <point x="402" y="-19"/>
      <point x="488" y="27"/>
      <point x="549" y="87" type="curve" smooth="yes"/>
      <point x="619" y="157"/>
      <point x="667" y="290"/>
      <point x="667" y="370" type="curve" smooth="yes"/>
      <point x="667" y="474"/>
      <point x="610" y="580"/>
      <point x="494" y="580" type="curve" smooth="yes"/>
      <point x="443" y="580"/>
      <point x="391" y="565"/>
      <point x="355" y="536" type="curve" smooth="yes"/>
      <point x="348" y="530"/>
      <point x="341" y="521"/>
      <point x="334" y="505" type="curve" smooth="yes"/>
      <point x="321" y="475"/>
      <point x="309" y="446"/>
      <point x="303" y="418" type="curve" smooth="yes"/>
      <point x="302" y="414"/>
      <point x="301" y="410"/>
      <point x="301" y="402" type="curve" smooth="yes"/>
      <point x="301" y="399"/>
      <point x="304" y="397"/>
      <point x="308" y="397" type="curve" smooth="yes"/>
      <point x="310" y="397"/>
      <point x="313" y="398"/>
      <point x="315" y="399" type="curve" smooth="yes"/>
      <point x="354" y="421"/>
      <point x="388" y="448"/>
      <point x="433" y="448" type="curve" smooth="yes"/>
      <point x="483" y="448"/>
      <point x="523" y="425"/>
      <point x="545" y="388" type="curve" smooth="yes"/>
      <point x="558" y="367"/>
      <point x="566" y="335"/>
      <point x="566" y="302" type="curve" smooth="yes"/>
      <point x="566" y="230"/>
      <point x="548" y="193"/>
      <point x="501" y="160" type="curve" smooth="yes"/>
      <point x="471" y="139"/>
      <point x="386" y="115"/>
      <point x="327" y="115" type="curve" smooth="yes"/>
      <point x="288" y="115"/>
      <point x="270" y="156"/>
      <point x="262" y="188" type="curve" smooth="yes"/>
      <point x="249" y="235"/>
      <point x="233" y="353"/>
      <point x="219" y="418" type="curve" smooth="yes"/>
      <point x="204" y="488"/>
      <point x="186" y="555"/>
      <point x="161" y="592" type="curve" smooth="yes"/>
      <point x="155" y="601"/>
      <point x="153" y="602"/>
      <point x="147" y="602" type="curve" smooth="yes"/>
      <point x="143" y="602"/>
      <point x="135" y="593"/>
      <point x="130" y="587" type="curve" smooth="yes"/>
      <point x="113" y="567"/>
      <point x="92" y="542"/>
      <point x="65" y="502" type="curve" smooth="yes"/>
      <point x="60" y="495"/>
      <point x="58" y="491"/>
      <point x="58" y="487" type="curve" smooth="yes"/>
      <point x="58" y="484"/>
      <point x="59" y="479"/>
      <point x="62" y="475" type="curve" smooth="yes"/>
      <point x="99" y="421"/>
      <point x="122" y="340"/>
      <point x="133" y="297" type="curve" smooth="yes"/>
      <point x="143" y="260"/>
      <point x="170" y="148"/>
    </contour>
  </outline>
</glyph>
<glyph name="kafhebrew" format="1">
  <advance width="567"/>
  <unicode hex="05DB"/>
  <outline>
    <contour>
      <point x="44" y="29" type="curve" smooth="yes"/>
      <point x="41" y="22"/>
      <point x="39" y="16"/>
      <point x="39" y="12" type="curve" smooth="yes"/>
      <point x="39" y="8"/>
      <point x="41" y="0"/>
      <point x="51" y="0" type="curve"/>
      <point x="337" y="0" type="line" smooth="yes"/>
      <point x="353" y="0"/>
      <point x="371" y="11"/>
      <point x="389" y="33" type="curve" smooth="yes"/>
      <point x="422" y="73"/>
      <point x="459" y="123"/>
      <point x="489" y="212" type="curve" smooth="yes"/>
      <point x="499" y="241"/>
      <point x="507" y="272"/>
      <point x="507" y="305" type="curve" smooth="yes"/>
      <point x="507" y="442"/>
      <point x="443" y="552"/>
      <point x="317" y="552" type="curve" smooth="yes"/>
      <point x="198" y="552" type="line" smooth="yes"/>
      <point x="176" y="552"/>
      <point x="168" y="563"/>
      <point x="162" y="589" type="curve" smooth="yes"/>
      <point x="160" y="598"/>
      <point x="154" y="603"/>
      <point x="147" y="603" type="curve" smooth="yes"/>
      <point x="142" y="603"/>
      <point x="135" y="598"/>
      <point x="130" y="592" type="curve" smooth="yes"/>
      <point x="109" y="567"/>
      <point x="71" y="506"/>
      <point x="48" y="463" type="curve" smooth="yes"/>
      <point x="42" y="452"/>
      <point x="39" y="446"/>
      <point x="39" y="440" type="curve" smooth="yes"/>
      <point x="39" y="425"/>
      <point x="57" y="421"/>
      <point x="80" y="421" type="curve" smooth="yes"/>
      <point x="259" y="421" type="line" smooth="yes"/>
      <point x="349" y="421"/>
      <point x="401" y="349"/>
      <point x="401" y="257" type="curve" smooth="yes"/>
      <point x="401" y="196"/>
      <point x="389" y="131"/>
      <point x="335" y="131" type="curve"/>
      <point x="115" y="131" type="line"/>
      <point x="106" y="131"/>
      <point x="99" y="130"/>
      <point x="92" y="120" type="curve" smooth="yes"/>
      <point x="83" y="107"/>
      <point x="60" y="65"/>
    </contour>
  </outline>
</glyph>
<glyph name="finalnunhebrew" format="1">
  <advance width="407"/>
  <unicode hex="05DF"/>
  <outline>
    <contour>
      <point x="243" y="-211" type="curve" smooth="yes"/>
      <point x="243" y="-225"/>
      <point x="245" y="-230"/>
      <point x="251" y="-230" type="curve" smooth="yes"/>
      <point x="255" y="-230"/>
      <point x="261" y="-226"/>
      <point x="268" y="-218" type="curve" smooth="yes"/>
      <point x="282" y="-202"/>
      <point x="304" y="-174"/>
      <point x="320" y="-150" type="curve" smooth="yes"/>
      <point x="328" y="-138"/>
      <point x="330" y="-124"/>
      <point x="330" y="-112" type="curve" smooth="yes"/>
      <point x="330" y="9"/>
      <point x="326" y="233"/>
      <point x="320" y="361" type="curve" smooth="yes"/>
      <point x="317" y="423"/>
      <point x="310" y="473"/>
      <point x="268" y="510" type="curve" smooth="yes"/>
      <point x="242" y="533"/>
      <point x="208" y="559"/>
      <point x="161" y="593" type="curve" smooth="yes"/>
      <point x="150" y="601"/>
      <point x="143" y="603"/>
      <point x="141" y="603" type="curve" smooth="yes"/>
      <point x="136" y="603"/>
      <point x="132" y="601"/>
      <point x="125" y="591" type="curve" smooth="yes"/>
      <point x="108" y="567"/>
      <point x="79" y="530"/>
      <point x="66" y="508" type="curve" smooth="yes"/>
      <point x="60" y="498"/>
      <point x="57" y="492"/>
      <point x="57" y="489" type="curve" smooth="yes"/>
      <point x="57" y="484"/>
      <point x="59" y="480"/>
      <point x="67" y="474" type="curve" smooth="yes"/>
      <point x="92" y="455"/>
      <point x="150" y="422"/>
      <point x="189" y="385" type="curve" smooth="yes"/>
      <point x="233" y="343"/>
      <point x="230" y="251"/>
      <point x="235" y="110" type="curve" smooth="yes"/>
      <point x="238" y="24"/>
      <point x="242" y="-104"/>
    </contour>
  </outline>
</glyph>
<glyph name="samekhhebrew" format="1">
  <advance width="726"/>
  <unicode hex="05E1"/>
  <outline>
    <contour>
      <point x="138" y="351" type="curve" smooth="yes"/>
      <point x="166" y="257"/>
      <point x="193" y="133"/>
      <point x="219" y="58" type="curve" smooth="yes"/>
      <point x="234" y="14"/>
      <point x="266" y="-15"/>
      <point x="302" y="-15" type="curve" smooth="yes"/>
      <point x="379" y="-15"/>
      <point x="447" y="20"/>
      <point x="514" y="75" type="curve" smooth="yes"/>
      <point x="549" y="104"/>
      <point x="587" y="157"/>
      <point x="603" y="188" type="curve" smooth="yes"/>
      <point x="648" y="274"/>
      <point x="666" y="356"/>
      <point x="666" y="442" type="curve" smooth="yes"/>
      <point x="666" y="511"/>
      <point x="639" y="552"/>
      <point x="577" y="552" type="curve" smooth="yes"/>
      <point x="225" y="552" type="line" smooth="yes"/>
      <point x="209" y="552"/>
      <point x="192" y="553"/>
      <point x="186" y="587" type="curve" smooth="yes"/>
      <point x="184" y="597"/>
      <point x="178" y="602"/>
      <point x="169" y="602" type="curve" smooth="yes"/>
      <point x="163" y="602"/>
      <point x="155" y="596"/>
      <point x="144" y="583" type="curve" smooth="yes"/>
      <point x="120" y="554"/>
      <point x="85" y="502"/>
      <point x="60" y="458" type="curve" smooth="yes"/>
      <point x="56" y="451"/>
      <point x="52" y="441"/>
      <point x="52" y="436" type="curve" smooth="yes"/>
      <point x="52" y="424"/>
      <point x="61" y="421"/>
      <point x="73" y="420" type="curve" smooth="yes"/>
      <point x="83" y="419"/>
      <point x="98" y="419"/>
      <point x="106" y="413" type="curve" smooth="yes"/>
      <point x="120" y="403"/>
      <point x="128" y="385"/>
    </contour>
    <contour>
      <point x="344" y="118" type="curve" smooth="yes"/>
      <point x="325" y="118"/>
      <point x="308" y="126"/>
      <point x="297" y="152" type="curve" smooth="yes"/>
      <point x="268" y="220"/>
      <point x="233" y="399"/>
      <point x="233" y="409" type="curve" smooth="yes"/>
      <point x="233" y="416"/>
      <point x="237" y="421"/>
      <point x="247" y="421" type="curve" smooth="yes"/>
      <point x="492" y="421" type="line" smooth="yes"/>
      <point x="551" y="421"/>
      <point x="562" y="398"/>
      <point x="562" y="328" type="curve" smooth="yes"/>
      <point x="562" y="256"/>
      <point x="529" y="195"/>
      <point x="475" y="161" type="curve" smooth="yes"/>
      <point x="438" y="138"/>
      <point x="390" y="118"/>
    </contour>
  </outline>
</glyph>
<glyph name="pehebrew" format="1">
  <advance width="567"/>
  <unicode hex="05E4"/>
  <outline>
    <contour>
      <point x="46" y="27" type="curve" smooth="yes"/>
      <point x="44" y="24"/>
      <point x="41" y="13"/>
      <point x="41" y="11" type="curve" smooth="yes"/>
      <point x="41" y="5"/>
      <point x="45" y="0"/>
      <point x="57" y="0" type="curve" smooth="yes"/>
      <point x="401" y="0" type="line" smooth="yes"/>
      <point x="418" y="0"/>
      <point x="422" y="1"/>
      <point x="429" y="11" type="curve" smooth="yes"/>
      <point x="451" y="46"/>
      <point x="466" y="86"/>
      <point x="478" y="119" type="curve" smooth="yes"/>
      <point x="486" y="142"/>
      <point x="493" y="169"/>
      <point x="493" y="202" type="curve" smooth="yes"/>
      <point x="493" y="243"/>
      <point x="490" y="333"/>
      <point x="483" y="387" type="curve" smooth="yes"/>
      <point x="474" y="457"/>
      <point x="440" y="507"/>
      <point x="392" y="534" type="curve" smooth="yes"/>
      <point x="338" y="565"/>
      <point x="302" y="579"/>
      <point x="249" y="598" type="curve" smooth="yes"/>
      <point x="243" y="600"/>
      <point x="238" y="602"/>
      <point x="235" y="602" type="curve" smooth="yes"/>
      <point x="230" y="602"/>
      <point x="224" y="600"/>
      <point x="217" y="594" type="curve" smooth="yes"/>
      <point x="151" y="534"/>
      <point x="69" y="446"/>
      <point x="69" y="357" type="curve" smooth="yes"/>
      <point x="69" y="295"/>
      <point x="117" y="246"/>
      <point x="167" y="227" type="curve" smooth="yes"/>
      <point x="172" y="225"/>
      <point x="178" y="223"/>
      <point x="182" y="223" type="curve" smooth="yes"/>
      <point x="187" y="223"/>
      <point x="193" y="228"/>
      <point x="198" y="236" type="curve" smooth="yes"/>
      <point x="212" y="258"/>
      <point x="226" y="278"/>
      <point x="241" y="303" type="curve" smooth="yes"/>
      <point x="244" y="308"/>
      <point x="247" y="315"/>
      <point x="247" y="319" type="curve" smooth="yes"/>
      <point x="247" y="325"/>
      <point x="242" y="327"/>
      <point x="234" y="330" type="curve" smooth="yes"/>
      <point x="198" y="344"/>
      <point x="167" y="371"/>
      <point x="167" y="406" type="curve" smooth="yes"/>
      <point x="167" y="432"/>
      <point x="188" y="470"/>
      <point x="198" y="470" type="curve" smooth="yes"/>
      <point x="235" y="470"/>
      <point x="328" y="418"/>
      <point x="350" y="397" type="curve" smooth="yes"/>
      <point x="367" y="381"/>
      <point x="380" y="356"/>
      <point x="387" y="330" type="curve" smooth="yes"/>
      <point x="400" y="278"/>
      <point x="404" y="174"/>
      <point x="404" y="152" type="curve" smooth="yes"/>
      <point x="404" y="138"/>
      <point x="394" y="131"/>
      <point x="383" y="131" type="curve" smooth="yes"/>
      <point x="116" y="131" type="line" smooth="yes"/>
      <point x="108" y="131"/>
      <point x="104" y="128"/>
      <point x="96" y="116" type="curve" smooth="yes"/>
      <point x="77" y="87"/>
      <point x="62" y="56"/>
    </contour>
  </outline>
</glyph>
<glyph name="finaltsadihebrew" format="1">
  <advance width="568"/>
  <unicode hex="05E5"/>
  <outline>
    <contour>
      <point x="257" y="258" type="curve" smooth="yes"/>
      <point x="345" y="127"/>
      <point x="422" y="-64"/>
      <point x="457" y="-215" type="curve" smooth="yes"/>
      <point x="460" y="-226"/>
      <point x="462" y="-230"/>
      <point x="469" y="-230" type="curve" smooth="yes"/>
      <point x="475" y="-230"/>
      <point x="480" y="-222"/>
      <point x="486" y="-210" type="curve" smooth="yes"/>
      <point x="503" y="-180"/>
      <point x="520" y="-127"/>
      <point x="519" y="-132" type="curve" smooth="yes"/>
      <point x="518" y="-135"/>
      <point x="523" y="-115"/>
      <point x="523" y="-111" type="curve" smooth="yes"/>
      <point x="523" y="-97"/>
      <point x="522" y="-93"/>
      <point x="517" y="-73" type="curve" smooth="yes"/>
      <point x="494" y="20"/>
      <point x="455" y="142"/>
      <point x="407" y="233" type="curve" smooth="yes"/>
      <point x="406" y="235"/>
      <point x="405" y="238"/>
      <point x="405" y="242" type="curve" smooth="yes"/>
      <point x="405" y="245"/>
      <point x="408" y="252"/>
      <point x="414" y="258" type="curve" smooth="yes"/>
      <point x="465" y="311"/>
      <point x="506" y="373"/>
      <point x="506" y="452" type="curve" smooth="yes"/>
      <point x="506" y="502"/>
      <point x="494" y="559"/>
      <point x="481" y="586" type="curve" smooth="yes"/>
      <point x="476" y="597"/>
      <point x="471" y="603"/>
      <point x="465" y="603" type="curve" smooth="yes"/>
      <point x="461" y="603"/>
      <point x="455" y="600"/>
      <point x="448" y="592" type="curve" smooth="yes"/>
      <point x="421" y="562"/>
      <point x="381" y="499"/>
      <point x="380" y="498" type="curve" smooth="yes"/>
      <point x="379" y="493"/>
      <point x="372" y="487"/>
      <point x="372" y="478" type="curve" smooth="yes"/>
      <point x="372" y="472"/>
      <point x="375" y="468"/>
      <point x="382" y="454" type="curve" smooth="yes"/>
      <point x="393" y="432"/>
      <point x="399" y="399"/>
      <point x="399" y="373" type="curve" smooth="yes"/>
      <point x="399" y="338"/>
      <point x="380" y="299"/>
      <point x="373" y="299" type="curve" smooth="yes"/>
      <point x="370" y="299"/>
      <point x="368" y="302"/>
      <point x="365" y="307" type="curve" smooth="yes"/>
      <point x="314" y="395"/>
      <point x="239" y="500"/>
      <point x="144" y="595" type="curve" smooth="yes"/>
      <point x="136" y="603"/>
      <point x="133" y="603"/>
      <point x="127" y="603" type="curve" smooth="yes"/>
      <point x="123" y="603"/>
      <point x="119" y="599"/>
      <point x="112" y="590" type="curve" smooth="yes"/>
      <point x="97" y="570"/>
      <point x="77" y="540"/>
      <point x="61" y="514" type="curve" smooth="yes"/>
      <point x="55" y="505"/>
      <point x="52" y="497"/>
      <point x="52" y="493" type="curve" smooth="yes"/>
      <point x="52" y="486"/>
      <point x="57" y="482"/>
      <point x="66" y="475" type="curve" smooth="yes"/>
      <point x="119" y="434"/>
      <point x="205" y="335"/>
    </contour>
  </outline>
</glyph>
<glyph name="tsadihebrew" format="1">
  <advance width="567"/>
  <unicode hex="05E6"/>
  <outline>
    <contour>
      <point x="96" y="115" type="curve" smooth="yes"/>
      <point x="86" y="100"/>
      <point x="61" y="57"/>
      <point x="48" y="30" type="curve" smooth="yes"/>
      <point x="44" y="22"/>
      <point x="43" y="16"/>
      <point x="43" y="11" type="curve" smooth="yes"/>
      <point x="43" y="4"/>
      <point x="49" y="0"/>
      <point x="61" y="0" type="curve" smooth="yes"/>
      <point x="414" y="0" type="line" smooth="yes"/>
      <point x="429" y="0"/>
      <point x="437" y="1"/>
      <point x="446" y="14" type="curve" smooth="yes"/>
      <point x="471" y="53"/>
      <point x="488" y="90"/>
      <point x="498" y="119" type="curve" smooth="yes"/>
      <point x="503" y="135"/>
      <point x="507" y="149"/>
      <point x="507" y="158" type="curve" smooth="yes"/>
      <point x="507" y="169"/>
      <point x="502" y="183"/>
      <point x="491" y="198" type="curve" smooth="yes"/>
      <point x="478" y="216"/>
      <point x="459" y="236"/>
      <point x="424" y="272" type="curve" smooth="yes"/>
      <point x="419" y="278"/>
      <point x="417" y="281"/>
      <point x="417" y="284" type="curve" smooth="yes"/>
      <point x="417" y="290"/>
      <point x="420" y="293"/>
      <point x="424" y="298" type="curve" smooth="yes"/>
      <point x="473" y="364"/>
      <point x="502" y="420"/>
      <point x="502" y="485" type="curve" smooth="yes"/>
      <point x="502" y="535"/>
      <point x="488" y="567"/>
      <point x="477" y="586" type="curve" smooth="yes"/>
      <point x="470" y="598"/>
      <point x="464" y="603"/>
      <point x="461" y="603" type="curve" smooth="yes"/>
      <point x="453" y="603"/>
      <point x="448" y="598"/>
      <point x="438" y="585" type="curve" smooth="yes"/>
      <point x="421" y="563"/>
      <point x="395" y="533"/>
      <point x="377" y="509" type="curve" smooth="yes"/>
      <point x="367" y="496"/>
      <point x="366" y="489"/>
      <point x="366" y="482" type="curve" smooth="yes"/>
      <point x="366" y="477"/>
      <point x="371" y="471"/>
      <point x="376" y="458" type="curve" smooth="yes"/>
      <point x="381" y="445"/>
      <point x="385" y="426"/>
      <point x="385" y="391" type="curve" smooth="yes"/>
      <point x="385" y="375"/>
      <point x="383" y="362"/>
      <point x="376" y="345" type="curve" smooth="yes"/>
      <point x="373" y="338"/>
      <point x="368" y="332"/>
      <point x="363" y="332" type="curve" smooth="yes"/>
      <point x="360" y="332"/>
      <point x="358" y="333"/>
      <point x="355" y="335" type="curve" smooth="yes"/>
      <point x="263" y="407"/>
      <point x="180" y="492"/>
      <point x="145" y="591" type="curve" smooth="yes"/>
      <point x="143" y="597"/>
      <point x="139" y="603"/>
      <point x="133" y="603" type="curve" smooth="yes"/>
      <point x="129" y="603"/>
      <point x="125" y="599"/>
      <point x="117" y="590" type="curve" smooth="yes"/>
      <point x="101" y="572"/>
      <point x="79" y="542"/>
      <point x="54" y="507" type="curve" smooth="yes"/>
      <point x="47" y="497"/>
      <point x="45" y="490"/>
      <point x="45" y="484" type="curve" smooth="yes"/>
      <point x="45" y="477"/>
      <point x="49" y="468"/>
      <point x="56" y="457" type="curve" smooth="yes"/>
      <point x="68" y="438"/>
      <point x="86" y="416"/>
      <point x="95" y="405" type="curve" smooth="yes"/>
      <point x="137" y="354"/>
      <point x="317" y="206"/>
      <point x="352" y="175" type="curve" smooth="yes"/>
      <point x="371" y="157"/>
      <point x="378" y="152"/>
      <point x="378" y="139" type="curve" smooth="yes"/>
      <point x="378" y="132"/>
      <point x="371" y="131"/>
      <point x="364" y="131" type="curve" smooth="yes"/>
      <point x="123" y="131" type="line" smooth="yes"/>
      <point x="109" y="131"/>
      <point x="101" y="122"/>
    </contour>
  </outline>
</glyph>
<glyph name="qofhebrew" format="1">
  <advance width="726"/>
  <unicode hex="05E7"/>
  <outline>
    <contour>
      <point x="135" y="372" type="curve" smooth="yes"/>
      <point x="148" y="198"/>
      <point x="147" y="-32"/>
      <point x="157" y="-209" type="curve" smooth="yes"/>
      <point x="158" y="-226"/>
      <point x="162" y="-229"/>
      <point x="169" y="-229" type="curve" smooth="yes"/>
      <point x="175" y="-229"/>
      <point x="181" y="-225"/>
      <point x="189" y="-213" type="curve" smooth="yes"/>
      <point x="206" y="-187"/>
      <point x="223" y="-161"/>
      <point x="236" y="-131" type="curve" smooth="yes"/>
      <point x="246" y="-107"/>
      <point x="246" y="-70"/>
      <point x="246" y="-49" type="curve" smooth="yes"/>
      <point x="246" y="138"/>
      <point x="244" y="301"/>
      <point x="244" y="396" type="curve" smooth="yes"/>
      <point x="244" y="409"/>
      <point x="251" y="421"/>
      <point x="265" y="421" type="curve" smooth="yes"/>
      <point x="502" y="421" type="line" smooth="yes"/>
      <point x="540" y="421"/>
      <point x="553" y="395"/>
      <point x="553" y="355" type="curve" smooth="yes"/>
      <point x="553" y="323"/>
      <point x="550" y="288"/>
      <point x="538" y="248" type="curve" smooth="yes"/>
      <point x="526" y="209"/>
      <point x="511" y="190"/>
      <point x="480" y="173" type="curve" smooth="yes"/>
      <point x="444" y="153"/>
      <point x="396" y="135"/>
      <point x="366" y="124" type="curve" smooth="yes"/>
      <point x="354" y="120"/>
      <point x="348" y="115"/>
      <point x="342" y="101" type="curve" smooth="yes"/>
      <point x="330" y="76"/>
      <point x="304" y="4"/>
      <point x="304" y="-8" type="curve" smooth="yes"/>
      <point x="304" y="-16"/>
      <point x="308" y="-20"/>
      <point x="317" y="-20" type="curve" smooth="yes"/>
      <point x="323" y="-20"/>
      <point x="331" y="-17"/>
      <point x="341" y="-14" type="curve" smooth="yes"/>
      <point x="389" y="1"/>
      <point x="470" y="47"/>
      <point x="489" y="61" type="curve" smooth="yes"/>
      <point x="521" y="85"/>
      <point x="554" y="123"/>
      <point x="578" y="167" type="curve" smooth="yes"/>
      <point x="601" y="209"/>
      <point x="618" y="248"/>
      <point x="635" y="291" type="curve" smooth="yes"/>
      <point x="655" y="342"/>
      <point x="666" y="394"/>
      <point x="666" y="438" type="curve" smooth="yes"/>
      <point x="666" y="494"/>
      <point x="646" y="553"/>
      <point x="579" y="553" type="curve" smooth="yes"/>
      <point x="232" y="553" type="line" smooth="yes"/>
      <point x="215" y="553"/>
      <point x="207" y="566"/>
      <point x="204" y="580" type="curve" smooth="yes"/>
      <point x="201" y="592"/>
      <point x="197" y="603"/>
      <point x="185" y="603" type="curve" smooth="yes"/>
      <point x="180" y="603"/>
      <point x="170" y="597"/>
      <point x="159" y="583" type="curve" smooth="yes"/>
      <point x="138" y="556"/>
      <point x="105" y="511"/>
      <point x="77" y="465" type="curve" smooth="yes"/>
      <point x="69" y="452"/>
      <point x="62" y="443"/>
      <point x="62" y="434" type="curve" smooth="yes"/>
      <point x="62" y="416"/>
      <point x="87" y="420"/>
      <point x="110" y="415" type="curve" smooth="yes"/>
      <point x="129" y="411"/>
      <point x="133" y="398"/>
    </contour>
  </outline>
</glyph>
<glyph name="shinhebrew" format="1">
  <advance width="726"/>
  <unicode hex="05E9"/>
  <outline>
    <contour>
      <point x="187" y="110" type="curve" smooth="yes"/>
      <point x="204" y="36"/>
      <point x="228" y="-17"/>
      <point x="290" y="-17" type="curve" smooth="yes"/>
      <point x="314" y="-17"/>
      <point x="341" y="-11"/>
      <point x="368" y="-3" type="curve" smooth="yes"/>
      <point x="415" y="11"/>
      <point x="460" y="35"/>
      <point x="490" y="57" type="curve" smooth="yes"/>
      <point x="523" y="80"/>
      <point x="557" y="116"/>
      <point x="578" y="149" type="curve" smooth="yes"/>
      <point x="605" y="193"/>
      <point x="663" y="301"/>
      <point x="663" y="433" type="curve" smooth="yes"/>
      <point x="663" y="471"/>
      <point x="647" y="544"/>
      <point x="635" y="581" type="curve" smooth="yes"/>
      <point x="630" y="596"/>
      <point x="624" y="602"/>
      <point x="617" y="602" type="curve" smooth="yes"/>
      <point x="611" y="602"/>
      <point x="605" y="597"/>
      <point x="597" y="589" type="curve" smooth="yes"/>
      <point x="572" y="564"/>
      <point x="550" y="537"/>
      <point x="531" y="512" type="curve" smooth="yes"/>
      <point x="524" y="503"/>
      <point x="522" y="496"/>
      <point x="522" y="491" type="curve" smooth="yes"/>
      <point x="522" y="487"/>
      <point x="523" y="479"/>
      <point x="528" y="467" type="curve" smooth="yes"/>
      <point x="542" y="433"/>
      <point x="559" y="353"/>
      <point x="559" y="296" type="curve" smooth="yes"/>
      <point x="559" y="236"/>
      <point x="540" y="202"/>
      <point x="503" y="172" type="curve" smooth="yes"/>
      <point x="445" y="125"/>
      <point x="380" y="113"/>
      <point x="332" y="113" type="curve" smooth="yes"/>
      <point x="288" y="113"/>
      <point x="281" y="140"/>
      <point x="270" y="197" type="curve" smooth="yes"/>
      <point x="269" y="202"/>
      <point x="268" y="208"/>
      <point x="268" y="210" type="curve" smooth="yes"/>
      <point x="268" y="214"/>
      <point x="271" y="217"/>
      <point x="276" y="221" type="curve" smooth="yes"/>
      <point x="298" y="238"/>
      <point x="331" y="262"/>
      <point x="353" y="286" type="curve" smooth="yes"/>
      <point x="396" y="332"/>
      <point x="437" y="402"/>
      <point x="437" y="468" type="curve" smooth="yes"/>
      <point x="437" y="508"/>
      <point x="422" y="559"/>
      <point x="411" y="586" type="curve" smooth="yes"/>
      <point x="407" y="596"/>
      <point x="401" y="602"/>
      <point x="395" y="602" type="curve" smooth="yes"/>
      <point x="392" y="602"/>
      <point x="385" y="600"/>
      <point x="376" y="589" type="curve" smooth="yes"/>
      <point x="360" y="569"/>
      <point x="331" y="540"/>
      <point x="310" y="504" type="curve" smooth="yes"/>
      <point x="306" y="497"/>
      <point x="304" y="493"/>
      <point x="304" y="487" type="curve" smooth="yes"/>
      <point x="304" y="483"/>
      <point x="306" y="479"/>
      <point x="308" y="473" type="curve" smooth="yes"/>
      <point x="319" y="445"/>
      <point x="325" y="424"/>
      <point x="325" y="385" type="curve" smooth="yes"/>
      <point x="325" y="325"/>
      <point x="275" y="288"/>
      <point x="256" y="288" type="curve" smooth="yes"/>
      <point x="251" y="288"/>
      <point x="248" y="294"/>
      <point x="247" y="297" type="curve" smooth="yes"/>
      <point x="238" y="336"/>
      <point x="230" y="367"/>
      <point x="221" y="401" type="curve" smooth="yes"/>
      <point x="198" y="489"/>
      <point x="175" y="556"/>
      <point x="158" y="587" type="curve" smooth="yes"/>
      <point x="152" y="598"/>
      <point x="146" y="602"/>
      <point x="141" y="602" type="curve" smooth="yes"/>
      <point x="136" y="602"/>
      <point x="131" y="599"/>
      <point x="124" y="590" type="curve" smooth="yes"/>
      <point x="102" y="562"/>
      <point x="64" y="507"/>
      <point x="62" y="503" type="curve" smooth="yes"/>
      <point x="60" y="500"/>
      <point x="58" y="494"/>
      <point x="58" y="490" type="curve" smooth="yes"/>
      <point x="58" y="486"/>
      <point x="64" y="476"/>
      <point x="69" y="466" type="curve" smooth="yes"/>
      <point x="114" y="376"/>
      <point x="166" y="203"/>
    </contour>
  </outline>
</glyph>
<glyph name="tavhebrew" format="1">
  <advance width="726"/>
  <unicode hex="05EA"/>
  <outline>
    <contour>
      <point x="49" y="33" type="curve" smooth="yes"/>
      <point x="44" y="22"/>
      <point x="42" y="11"/>
      <point x="42" y="11" type="curve" smooth="yes"/>
      <point x="42" y="4"/>
      <point x="46" y="-1"/>
      <point x="56" y="-1" type="curve" smooth="yes"/>
      <point x="232" y="-1" type="line" smooth="yes"/>
      <point x="244" y="-1"/>
      <point x="251" y="5"/>
      <point x="255" y="14" type="curve" smooth="yes"/>
      <point x="271" y="49"/>
      <point x="292" y="113"/>
      <point x="300" y="146" type="curve" smooth="yes"/>
      <point x="303" y="158"/>
      <point x="305" y="170"/>
      <point x="305" y="186" type="curve" smooth="yes"/>
      <point x="305" y="208"/>
      <point x="279" y="327"/>
      <point x="265" y="393" type="curve" smooth="yes"/>
      <point x="264" y="399"/>
      <point x="262" y="407"/>
      <point x="262" y="413" type="curve" smooth="yes"/>
      <point x="262" y="421"/>
      <point x="267" y="421"/>
      <point x="276" y="421" type="curve"/>
      <point x="455" y="421" type="line" smooth="yes"/>
      <point x="490" y="421"/>
      <point x="508" y="405"/>
      <point x="517" y="367" type="curve" smooth="yes"/>
      <point x="533" y="296"/>
      <point x="540" y="47"/>
      <point x="543" y="-10" type="curve" smooth="yes"/>
      <point x="544" y="-20"/>
      <point x="547" y="-27"/>
      <point x="554" y="-27" type="curve" smooth="yes"/>
      <point x="560" y="-27"/>
      <point x="565" y="-22"/>
      <point x="568" y="-18" type="curve" smooth="yes"/>
      <point x="591" y="13"/>
      <point x="611" y="50"/>
      <point x="622" y="76" type="curve" smooth="yes"/>
      <point x="627" y="88"/>
      <point x="629" y="101"/>
      <point x="629" y="133" type="curve" smooth="yes"/>
      <point x="628" y="184"/>
      <point x="625" y="274"/>
      <point x="621" y="356" type="curve" smooth="yes"/>
      <point x="616" y="451"/>
      <point x="600" y="551"/>
      <point x="496" y="551" type="curve" smooth="yes"/>
      <point x="211" y="551" type="line"/>
      <point x="195" y="551"/>
      <point x="189" y="562"/>
      <point x="180" y="586" type="curve"/>
      <point x="177" y="594"/>
      <point x="171" y="602"/>
      <point x="162" y="602" type="curve"/>
      <point x="154" y="602"/>
      <point x="147" y="597"/>
      <point x="143" y="592" type="curve"/>
      <point x="116" y="560"/>
      <point x="76" y="497"/>
      <point x="57" y="454" type="curve" smooth="yes"/>
      <point x="54" y="447"/>
      <point x="52" y="438"/>
      <point x="52" y="435" type="curve" smooth="yes"/>
      <point x="52" y="423"/>
      <point x="62" y="421"/>
      <point x="70" y="421" type="curve" smooth="yes"/>
      <point x="126" y="421" type="line" smooth="yes"/>
      <point x="136" y="421"/>
      <point x="146" y="420"/>
      <point x="151" y="406" type="curve" smooth="yes"/>
      <point x="179" y="332"/>
      <point x="220" y="156"/>
      <point x="220" y="143" type="curve" smooth="yes"/>
      <point x="220" y="137"/>
      <point x="216" y="131"/>
      <point x="206" y="131" type="curve" smooth="yes"/>
      <point x="115" y="131" type="line" smooth="yes"/>
      <point x="105" y="131"/>
      <point x="96" y="123"/>
      <point x="90" y="113" type="curve" smooth="yes"/>
      <point x="76" y="89"/>
      <point x="64" y="66"/>
    </contour>
  </outline>
</glyph>
<glyph name="uni05F3" format="1">
  <advance width="265"/>
  <unicode hex="05F3"/>
  <outline>
    <contour>
      <point x="152" y="659" type="curve" smooth="yes"/>
      <point x="94" y="587"/>
      <point x="35" y="463"/>
      <point x="35" y="463" type="curve"/>
      <point x="35" y="452"/>
      <point x="43" y="446"/>
      <point x="53" y="446" type="curve" smooth="yes"/>
      <point x="75" y="446"/>
      <point x="157" y="516"/>
      <point x="189" y="559" type="curve" smooth="yes"/>
      <point x="200" y="574"/>
      <point x="211" y="598"/>
      <point x="211" y="632" type="curve" smooth="yes"/>
      <point x="211" y="651"/>
      <point x="208" y="668"/>
      <point x="195" y="668" type="curve" smooth="yes"/>
      <point x="168" y="668" type="line" smooth="yes"/>
      <point x="162" y="668"/>
      <point x="156" y="665"/>
    </contour>
  </outline>
</glyph>
<glyph name="endash" format="1">
  <advance width="559"/>
  <unicode hex="2013"/>
  <outline>
    <contour>
      <point x="115" y="311" type="curve"/>
      <point x="100" y="293"/>
      <point x="87" y="273"/>
      <point x="77" y="257" type="curve"/>
      <point x="75" y="253"/>
      <point x="72" y="248"/>
      <point x="72" y="241" type="curve"/>
      <point x="72" y="231"/>
      <point x="81" y="228"/>
      <point x="92" y="228" type="curve"/>
      <point x="129" y="228"/>
      <point x="385" y="228"/>
      <point x="420" y="228" type="curve"/>
      <point x="433" y="228"/>
      <point x="440" y="231"/>
      <point x="449" y="243" type="curve"/>
      <point x="464" y="261"/>
      <point x="470" y="274"/>
      <point x="481" y="295" type="curve"/>
      <point x="484" y="300"/>
      <point x="486" y="307"/>
      <point x="486" y="311" type="curve"/>
      <point x="486" y="322"/>
      <point x="479" y="326"/>
      <point x="465" y="326" type="curve"/>
      <point x="149" y="326" type="line" smooth="yes"/>
      <point x="135" y="326"/>
      <point x="126" y="323"/>
    </contour>
  </outline>
</glyph>
<glyph name="quoteleft" format="1">
  <advance width="341"/>
  <unicode hex="2018"/>
  <outline>
    <contour>
      <point x="257" y="582" type="curve" smooth="yes"/>
      <point x="263" y="600"/>
      <point x="266" y="607"/>
      <point x="266" y="615" type="curve" smooth="yes"/>
      <point x="266" y="622"/>
      <point x="262" y="629"/>
      <point x="255" y="629" type="curve" smooth="yes"/>
      <point x="244" y="629"/>
      <point x="234" y="619"/>
      <point x="223" y="608" type="curve" smooth="yes"/>
      <point x="185" y="570"/>
      <point x="157" y="522"/>
      <point x="133" y="479" type="curve" smooth="yes"/>
      <point x="109" y="436"/>
      <point x="92" y="386"/>
      <point x="92" y="353" type="curve" smooth="yes"/>
      <point x="92" y="326"/>
      <point x="98" y="295"/>
      <point x="108" y="275" type="curve" smooth="yes"/>
      <point x="114" y="263"/>
      <point x="121" y="254"/>
      <point x="127" y="254" type="curve" smooth="yes"/>
      <point x="136" y="254"/>
      <point x="141" y="256"/>
      <point x="149" y="264" type="curve" smooth="yes"/>
      <point x="177" y="292"/>
      <point x="196" y="310"/>
      <point x="210" y="329" type="curve" smooth="yes"/>
      <point x="215" y="336"/>
      <point x="219" y="342"/>
      <point x="219" y="352" type="curve" smooth="yes"/>
      <point x="219" y="364"/>
      <point x="215" y="382"/>
      <point x="215" y="407" type="curve" smooth="yes"/>
      <point x="215" y="467"/>
      <point x="240" y="532"/>
    </contour>
  </outline>
</glyph>
<glyph name="quotedblleft" format="1">
  <advance width="562"/>
  <unicode hex="201C"/>
  <outline>
    <contour>
      <point x="477" y="582" type="curve" smooth="yes"/>
      <point x="483" y="600"/>
      <point x="486" y="607"/>
      <point x="486" y="615" type="curve" smooth="yes"/>
      <point x="486" y="622"/>
      <point x="482" y="629"/>
      <point x="475" y="629" type="curve" smooth="yes"/>
      <point x="464" y="629"/>
      <point x="454" y="619"/>
      <point x="443" y="608" type="curve" smooth="yes"/>
      <point x="405" y="570"/>
      <point x="380" y="522"/>
      <point x="353" y="479" type="curve" smooth="yes"/>
      <point x="327" y="438"/>
      <point x="312" y="386"/>
      <point x="312" y="353" type="curve" smooth="yes"/>
      <point x="312" y="326"/>
      <point x="318" y="295"/>
      <point x="328" y="275" type="curve" smooth="yes"/>
      <point x="334" y="263"/>
      <point x="341" y="254"/>
      <point x="347" y="254" type="curve" smooth="yes"/>
      <point x="356" y="254"/>
      <point x="361" y="256"/>
      <point x="369" y="264" type="curve" smooth="yes"/>
      <point x="397" y="292"/>
      <point x="416" y="310"/>
      <point x="430" y="329" type="curve" smooth="yes"/>
      <point x="435" y="336"/>
      <point x="439" y="342"/>
      <point x="439" y="352" type="curve" smooth="yes"/>
      <point x="439" y="364"/>
      <point x="435" y="382"/>
      <point x="435" y="407" type="curve" smooth="yes"/>
      <point x="435" y="467"/>
      <point x="460" y="532"/>
    </contour>
    <contour>
      <point x="242" y="582" type="curve" smooth="yes"/>
      <point x="248" y="600"/>
      <point x="251" y="607"/>
      <point x="251" y="615" type="curve" smooth="yes"/>
      <point x="251" y="622"/>
      <point x="247" y="629"/>
      <point x="240" y="629" type="curve" smooth="yes"/>
      <point x="229" y="629"/>
      <point x="219" y="619"/>
      <point x="208" y="608" type="curve" smooth="yes"/>
      <point x="170" y="570"/>
      <point x="145" y="522"/>
      <point x="118" y="479" type="curve" smooth="yes"/>
      <point x="92" y="438"/>
      <point x="77" y="386"/>
      <point x="77" y="353" type="curve" smooth="yes"/>
      <point x="77" y="326"/>
      <point x="83" y="295"/>
      <point x="93" y="275" type="curve" smooth="yes"/>
      <point x="99" y="263"/>
      <point x="106" y="254"/>
      <point x="112" y="254" type="curve" smooth="yes"/>
      <point x="121" y="254"/>
      <point x="126" y="256"/>
      <point x="134" y="264" type="curve" smooth="yes"/>
      <point x="162" y="292"/>
      <point x="181" y="310"/>
      <point x="195" y="329" type="curve" smooth="yes"/>
      <point x="200" y="336"/>
      <point x="204" y="342"/>
      <point x="204" y="352" type="curve" smooth="yes"/>
      <point x="204" y="364"/>
      <point x="200" y="382"/>
      <point x="200" y="407" type="curve" smooth="yes"/>
      <point x="200" y="467"/>
      <point x="225" y="532"/>
    </contour>
  </outline>
</glyph>
<glyph name="dagger" format="1">
  <advance width="369"/>
  <unicode hex="2020"/>
  <outline>
    <contour>
      <point x="270" y="401" type="line" smooth="yes"/>
      <point x="280" y="401"/>
      <point x="287" y="404"/>
      <point x="298" y="418" type="curve"/>
      <point x="310" y="435"/>
      <point x="324" y="467"/>
      <point x="324" y="476" type="curve"/>
      <point x="324" y="486"/>
      <point x="317" y="489"/>
      <point x="307" y="489" type="curve"/>
      <point x="227" y="489" type="line"/>
      <point x="221" y="489"/>
      <point x="218" y="490"/>
      <point x="218" y="496" type="curve"/>
      <point x="215" y="538"/>
      <point x="215" y="577"/>
      <point x="213" y="610" type="curve"/>
      <point x="213" y="616"/>
      <point x="210" y="622"/>
      <point x="202" y="622" type="curve"/>
      <point x="174" y="622" type="line" smooth="yes"/>
      <point x="165" y="622"/>
      <point x="163" y="615"/>
      <point x="163" y="609" type="curve"/>
      <point x="162" y="578"/>
      <point x="159" y="540"/>
      <point x="156" y="499" type="curve"/>
      <point x="156" y="493"/>
      <point x="153" y="489"/>
      <point x="148" y="489" type="curve"/>
      <point x="103" y="489" type="line" smooth="yes"/>
      <point x="95" y="489"/>
      <point x="88" y="485"/>
      <point x="80" y="475" type="curve"/>
      <point x="64" y="457"/>
      <point x="45" y="421"/>
      <point x="45" y="411" type="curve"/>
      <point x="45" y="403"/>
      <point x="52" y="401"/>
      <point x="61" y="401" type="curve"/>
      <point x="142" y="401" type="line"/>
      <point x="150" y="401"/>
      <point x="154" y="397"/>
      <point x="154" y="387" type="curve"/>
      <point x="157" y="294"/>
      <point x="159" y="223"/>
      <point x="162" y="132" type="curve"/>
      <point x="162" y="126"/>
      <point x="163" y="120"/>
      <point x="172" y="120" type="curve"/>
      <point x="200" y="120" type="line" smooth="yes"/>
      <point x="209" y="120"/>
      <point x="212" y="126"/>
      <point x="212" y="132" type="curve"/>
      <point x="214" y="241"/>
      <point x="217" y="304"/>
      <point x="220" y="388" type="curve"/>
      <point x="220" y="396"/>
      <point x="224" y="401"/>
      <point x="229" y="401" type="curve"/>
    </contour>
  </outline>
</glyph>
<glyph name="daggerdbl" format="1">
  <advance width="372"/>
  <unicode hex="2021"/>
  <outline>
    <contour>
      <point x="218" y="331" type="curve"/>
      <point x="216" y="353"/>
      <point x="218" y="386"/>
      <point x="218" y="409" type="curve"/>
      <point x="218" y="416"/>
      <point x="222" y="422"/>
      <point x="227" y="422" type="curve"/>
      <point x="270" y="422" type="line" smooth="yes"/>
      <point x="280" y="422"/>
      <point x="287" y="425"/>
      <point x="298" y="440" type="curve"/>
      <point x="310" y="456"/>
      <point x="324" y="487"/>
      <point x="324" y="496" type="curve"/>
      <point x="324" y="506"/>
      <point x="317" y="508"/>
      <point x="307" y="508" type="curve"/>
      <point x="226" y="508" type="line" smooth="yes"/>
      <point x="220" y="508"/>
      <point x="217" y="510"/>
      <point x="217" y="515" type="curve"/>
      <point x="215" y="557"/>
      <point x="214" y="581"/>
      <point x="212" y="610" type="curve"/>
      <point x="212" y="616"/>
      <point x="209" y="622"/>
      <point x="201" y="622" type="curve"/>
      <point x="174" y="622" type="line" smooth="yes"/>
      <point x="165" y="622"/>
      <point x="164" y="615"/>
      <point x="163" y="609" type="curve"/>
      <point x="161" y="578"/>
      <point x="160" y="559"/>
      <point x="157" y="519" type="curve"/>
      <point x="156" y="512"/>
      <point x="154" y="508"/>
      <point x="148" y="508" type="curve"/>
      <point x="103" y="508" type="line" smooth="yes"/>
      <point x="95" y="508"/>
      <point x="88" y="504"/>
      <point x="79" y="495" type="curve"/>
      <point x="64" y="476"/>
      <point x="45" y="442"/>
      <point x="45" y="431" type="curve"/>
      <point x="45" y="424"/>
      <point x="52" y="422"/>
      <point x="61" y="422" type="curve"/>
      <point x="142" y="422" type="line" smooth="yes"/>
      <point x="150" y="422"/>
      <point x="153" y="418"/>
      <point x="154" y="408" type="curve"/>
      <point x="154" y="390"/>
      <point x="154" y="360"/>
      <point x="153" y="331" type="curve"/>
      <point x="153" y="323"/>
      <point x="149" y="319"/>
      <point x="144" y="319" type="curve"/>
      <point x="101" y="319" type="line" smooth="yes"/>
      <point x="91" y="319"/>
      <point x="84" y="315"/>
      <point x="73" y="301" type="curve"/>
      <point x="61" y="285"/>
      <point x="46" y="255"/>
      <point x="46" y="246" type="curve"/>
      <point x="46" y="236"/>
      <point x="54" y="233"/>
      <point x="64" y="233" type="curve"/>
      <point x="145" y="233" type="line" smooth="yes"/>
      <point x="151" y="233"/>
      <point x="154" y="232"/>
      <point x="154" y="226" type="curve"/>
      <point x="155" y="184"/>
      <point x="157" y="161"/>
      <point x="158" y="132" type="curve"/>
      <point x="158" y="126"/>
      <point x="161" y="120"/>
      <point x="169" y="120" type="curve"/>
      <point x="197" y="120" type="line" smooth="yes"/>
      <point x="206" y="120"/>
      <point x="206" y="126"/>
      <point x="207" y="132" type="curve"/>
      <point x="209" y="164"/>
      <point x="211" y="182"/>
      <point x="214" y="223" type="curve"/>
      <point x="215" y="229"/>
      <point x="217" y="233"/>
      <point x="222" y="233" type="curve"/>
      <point x="267" y="233" type="line" smooth="yes"/>
      <point x="275" y="233"/>
      <point x="283" y="237"/>
      <point x="290" y="247" type="curve"/>
      <point x="306" y="267"/>
      <point x="325" y="299"/>
      <point x="325" y="310" type="curve"/>
      <point x="325" y="317"/>
      <point x="317" y="319"/>
      <point x="309" y="319" type="curve"/>
      <point x="230" y="319" type="line" smooth="yes"/>
      <point x="221" y="319"/>
      <point x="218" y="322"/>
    </contour>
  </outline>
</glyph>
<glyph name="bullet" format="1">
  <advance width="363"/>
  <unicode hex="2022"/>
  <outline>
    <contour>
      <point x="77" y="213" type="curve" smooth="yes"/>
      <point x="98" y="192"/>
      <point x="144" y="152"/>
      <point x="179" y="130" type="curve" smooth="yes"/>
      <point x="183" y="127"/>
      <point x="190" y="125"/>
      <point x="194" y="125" type="curve" smooth="yes"/>
      <point x="200" y="125"/>
      <point x="206" y="129"/>
      <point x="210" y="133" type="curve" smooth="yes"/>
      <point x="231" y="157"/>
      <point x="258" y="193"/>
      <point x="280" y="225" type="curve" smooth="yes"/>
      <point x="282" y="228"/>
      <point x="284" y="234"/>
      <point x="284" y="238" type="curve" smooth="yes"/>
      <point x="284" y="246"/>
      <point x="280" y="254"/>
      <point x="274" y="257" type="curve" smooth="yes"/>
      <point x="246" y="272"/>
      <point x="208" y="300"/>
      <point x="180" y="329" type="curve" smooth="yes"/>
      <point x="175" y="334"/>
      <point x="171" y="337"/>
      <point x="165" y="337" type="curve" smooth="yes"/>
      <point x="159" y="337"/>
      <point x="152" y="333"/>
      <point x="148" y="328" type="curve" smooth="yes"/>
      <point x="141" y="321"/>
      <point x="83" y="250"/>
      <point x="76" y="241" type="curve" smooth="yes"/>
      <point x="71" y="235"/>
      <point x="70" y="230"/>
      <point x="70" y="226" type="curve" smooth="yes"/>
      <point x="70" y="221"/>
      <point x="74" y="216"/>
    </contour>
  </outline>
</glyph>
<glyph name="guilsinglright" format="1">
  <advance width="231"/>
  <unicode hex="203A"/>
  <outline>
    <contour>
      <point x="128" y="184" type="curve" smooth="yes"/>
      <point x="143" y="204"/>
      <point x="173" y="246"/>
      <point x="185" y="271" type="curve" smooth="yes"/>
      <point x="187" y="275"/>
      <point x="189" y="281"/>
      <point x="189" y="286" type="curve" smooth="yes"/>
      <point x="189" y="292"/>
      <point x="187" y="298"/>
      <point x="180" y="309" type="curve" smooth="yes"/>
      <point x="165" y="334"/>
      <point x="120" y="383"/>
      <point x="93" y="406" type="curve" smooth="yes"/>
      <point x="88" y="410"/>
      <point x="85" y="411"/>
      <point x="83" y="411" type="curve" smooth="yes"/>
      <point x="80" y="411"/>
      <point x="76" y="409"/>
      <point x="72" y="404" type="curve" smooth="yes"/>
      <point x="53" y="381"/>
      <point x="43" y="365"/>
      <point x="30" y="344" type="curve" smooth="yes"/>
      <point x="24" y="334"/>
      <point x="25" y="331"/>
      <point x="24" y="329" type="curve"/>
      <point x="24" y="323"/>
      <point x="26" y="320"/>
      <point x="28" y="318" type="curve" smooth="yes"/>
      <point x="74" y="268" type="line" smooth="yes"/>
      <point x="77" y="265"/>
      <point x="79" y="259"/>
      <point x="79" y="256" type="curve" smooth="yes"/>
      <point x="79" y="253"/>
      <point x="78" y="249"/>
      <point x="76" y="244" type="curve" smooth="yes"/>
      <point x="35" y="156" type="line" smooth="yes"/>
      <point x="33" y="152"/>
      <point x="31" y="146"/>
      <point x="31" y="143" type="curve" smooth="yes"/>
      <point x="31" y="139"/>
      <point x="34" y="136"/>
      <point x="39" y="136" type="curve" smooth="yes"/>
      <point x="41" y="136"/>
      <point x="44" y="136"/>
      <point x="48" y="138" type="curve" smooth="yes"/>
      <point x="56" y="141"/>
      <point x="94" y="159"/>
      <point x="99" y="162" type="curve" smooth="yes"/>
      <point x="106" y="166"/>
      <point x="119" y="172"/>
    </contour>
  </outline>
</glyph>
<glyph name="sheqelhebrew" format="1">
  <advance width="881"/>
  <unicode hex="20AA"/>
  <outline>
    <contour>
      <point x="117" y="-16" type="curve" smooth="yes"/>
      <point x="117" y="-21"/>
      <point x="120" y="-25"/>
      <point x="125" y="-25" type="curve" smooth="yes"/>
      <point x="133" y="-25"/>
      <point x="140" y="-19"/>
      <point x="146" y="-10" type="curve" smooth="yes"/>
      <point x="158" y="8"/>
      <point x="178" y="42"/>
      <point x="190" y="64" type="curve" smooth="yes"/>
      <point x="206" y="94"/>
      <point x="206" y="112"/>
      <point x="206" y="144" type="curve" smooth="yes"/>
      <point x="206" y="263"/>
      <point x="197" y="354"/>
      <point x="197" y="403" type="curve" smooth="yes"/>
      <point x="197" y="416"/>
      <point x="203" y="426"/>
      <point x="218" y="426" type="curve" smooth="yes"/>
      <point x="391" y="426" type="line" smooth="yes"/>
      <point x="461" y="426"/>
      <point x="474" y="398"/>
      <point x="474" y="365" type="curve" smooth="yes"/>
      <point x="474" y="317"/>
      <point x="451" y="277"/>
      <point x="416" y="253" type="curve" smooth="yes"/>
      <point x="411" y="250"/>
      <point x="403" y="249"/>
      <point x="400" y="249" type="curve" smooth="yes"/>
      <point x="396" y="249"/>
      <point x="393" y="255"/>
      <point x="390" y="266" type="curve" smooth="yes"/>
      <point x="378" y="309"/>
      <point x="371" y="344"/>
      <point x="361" y="370" type="curve" smooth="yes"/>
      <point x="357" y="380"/>
      <point x="351" y="387"/>
      <point x="344" y="387" type="curve" smooth="yes"/>
      <point x="339" y="387"/>
      <point x="335" y="383"/>
      <point x="328" y="377" type="curve" smooth="yes"/>
      <point x="302" y="354"/>
      <point x="264" y="298"/>
      <point x="264" y="298" type="curve" smooth="yes"/>
      <point x="263" y="296"/>
      <point x="262" y="293"/>
      <point x="262" y="290" type="curve" smooth="yes"/>
      <point x="262" y="285"/>
      <point x="266" y="275"/>
      <point x="271" y="263" type="curve" smooth="yes"/>
      <point x="306" y="179"/>
      <point x="327" y="89"/>
      <point x="356" y="33" type="curve" smooth="yes"/>
      <point x="372" y="2"/>
      <point x="398" y="-18"/>
      <point x="433" y="-18" type="curve" smooth="yes"/>
      <point x="495" y="-18"/>
      <point x="578" y="17"/>
      <point x="621" y="48" type="curve" smooth="yes"/>
      <point x="654" y="72"/>
      <point x="703" y="133"/>
      <point x="721" y="170" type="curve" smooth="yes"/>
      <point x="744" y="218"/>
      <point x="792" y="321"/>
      <point x="792" y="423" type="curve" smooth="yes"/>
      <point x="792" y="464"/>
      <point x="777" y="552"/>
      <point x="762" y="590" type="curve" smooth="yes"/>
      <point x="757" y="603"/>
      <point x="751" y="607"/>
      <point x="745" y="607" type="curve" smooth="yes"/>
      <point x="741" y="607"/>
      <point x="735" y="603"/>
      <point x="727" y="594" type="curve" smooth="yes"/>
      <point x="706" y="571"/>
      <point x="671" y="530"/>
      <point x="661" y="517" type="curve" smooth="yes"/>
      <point x="654" y="508"/>
      <point x="650" y="504"/>
      <point x="650" y="495" type="curve" smooth="yes"/>
      <point x="650" y="489"/>
      <point x="653" y="482"/>
      <point x="658" y="468" type="curve" smooth="yes"/>
      <point x="671" y="433"/>
      <point x="688" y="367"/>
      <point x="688" y="310" type="curve" smooth="yes"/>
      <point x="688" y="188"/>
      <point x="547" y="106"/>
      <point x="471" y="106" type="curve" smooth="yes"/>
      <point x="452" y="106"/>
      <point x="433" y="120"/>
      <point x="427" y="134" type="curve" smooth="yes"/>
      <point x="420" y="152"/>
      <point x="414" y="168"/>
      <point x="414" y="176" type="curve" smooth="yes"/>
      <point x="414" y="182"/>
      <point x="416" y="184"/>
      <point x="422" y="188" type="curve" smooth="yes"/>
      <point x="460" y="211"/>
      <point x="498" y="240"/>
      <point x="543" y="298" type="curve" smooth="yes"/>
      <point x="567" y="329"/>
      <point x="581" y="379"/>
      <point x="581" y="417" type="curve" smooth="yes"/>
      <point x="581" y="508"/>
      <point x="528" y="557"/>
      <point x="421" y="557" type="curve" smooth="yes"/>
      <point x="233" y="557" type="line" smooth="yes"/>
      <point x="213" y="557"/>
      <point x="197" y="559"/>
      <point x="189" y="588" type="curve" smooth="yes"/>
      <point x="185" y="602"/>
      <point x="181" y="607"/>
      <point x="170" y="607" type="curve" smooth="yes"/>
      <point x="166" y="607"/>
      <point x="159" y="601"/>
      <point x="151" y="591" type="curve" smooth="yes"/>
      <point x="131" y="566"/>
      <point x="94" y="512"/>
      <point x="81" y="491" type="curve" smooth="yes"/>
      <point x="73" y="478"/>
      <point x="71" y="472"/>
      <point x="70" y="460" type="curve" smooth="yes"/>
      <point x="70" y="458"/>
      <point x="73" y="444"/>
      <point x="74" y="440" type="curve" smooth="yes"/>
      <point x="108" y="305"/>
      <point x="108" y="157"/>
    </contour>
  </outline>
</glyph>
<glyph name="Euro" format="1">
  <advance width="568"/>
  <unicode hex="20AC"/>
  <outline>
    <contour>
      <point x="355" y="-16" type="curve" smooth="yes"/>
      <point x="397" y="-16"/>
      <point x="443" y="-5"/>
      <point x="461" y="11" type="curve" smooth="yes"/>
      <point x="485" y="32"/>
      <point x="506" y="51"/>
      <point x="543" y="93" type="curve" smooth="yes"/>
      <point x="550" y="101"/>
      <point x="557" y="109"/>
      <point x="557" y="117" type="curve" smooth="yes"/>
      <point x="557" y="122"/>
      <point x="553" y="126"/>
      <point x="548" y="126" type="curve" smooth="yes"/>
      <point x="540" y="126"/>
      <point x="449" y="95"/>
      <point x="389" y="95" type="curve" smooth="yes"/>
      <point x="279" y="95"/>
      <point x="200" y="141"/>
      <point x="189" y="291" type="curve"/>
      <point x="268" y="291"/>
      <point x="339" y="292"/>
      <point x="425" y="292" type="curve" smooth="yes"/>
      <point x="448" y="292"/>
      <point x="467" y="293"/>
      <point x="487" y="305" type="curve" smooth="yes"/>
      <point x="497" y="311"/>
      <point x="511" y="319"/>
      <point x="522" y="327" type="curve" smooth="yes"/>
      <point x="527" y="331"/>
      <point x="534" y="340"/>
      <point x="534" y="343" type="curve" smooth="yes"/>
      <point x="534" y="347"/>
      <point x="531" y="349"/>
      <point x="524" y="349" type="curve" smooth="yes"/>
      <point x="185" y="349" type="line"/>
      <point x="185" y="367"/>
      <point x="186" y="386"/>
      <point x="187" y="400" type="curve"/>
      <point x="232" y="401"/>
      <point x="380" y="400"/>
      <point x="441" y="404" type="curve" smooth="yes"/>
      <point x="455" y="405"/>
      <point x="468" y="408"/>
      <point x="480" y="413" type="curve" smooth="yes"/>
      <point x="497" y="420"/>
      <point x="517" y="431"/>
      <point x="529" y="439" type="curve" smooth="yes"/>
      <point x="535" y="443"/>
      <point x="539" y="447"/>
      <point x="539" y="451" type="curve" smooth="yes"/>
      <point x="539" y="455"/>
      <point x="533" y="458"/>
      <point x="526" y="458" type="curve" smooth="yes"/>
      <point x="197" y="458" type="line" smooth="yes"/>
      <point x="194" y="458"/>
      <point x="194" y="460"/>
      <point x="194" y="462" type="curve" smooth="yes"/>
      <point x="194" y="484"/>
      <point x="206" y="527"/>
      <point x="225" y="558" type="curve" smooth="yes"/>
      <point x="244" y="588"/>
      <point x="278" y="608"/>
      <point x="324" y="608" type="curve" smooth="yes"/>
      <point x="376" y="608"/>
      <point x="415" y="586"/>
      <point x="445" y="572" type="curve" smooth="yes"/>
      <point x="449" y="570"/>
      <point x="456" y="566"/>
      <point x="463" y="566" type="curve" smooth="yes"/>
      <point x="468" y="566"/>
      <point x="475" y="570"/>
      <point x="483" y="581" type="curve" smooth="yes"/>
      <point x="500" y="604"/>
      <point x="522" y="637"/>
      <point x="531" y="652" type="curve" smooth="yes"/>
      <point x="535" y="659"/>
      <point x="538" y="665"/>
      <point x="538" y="670" type="curve" smooth="yes"/>
      <point x="538" y="675"/>
      <point x="532" y="679"/>
      <point x="523" y="683" type="curve" smooth="yes"/>
      <point x="495" y="696"/>
      <point x="437" y="707"/>
      <point x="410" y="707" type="curve" smooth="yes"/>
      <point x="356" y="707"/>
      <point x="319" y="699"/>
      <point x="272" y="674" type="curve" smooth="yes"/>
      <point x="217" y="644"/>
      <point x="159" y="610"/>
      <point x="123" y="570" type="curve" smooth="yes"/>
      <point x="99" y="544"/>
      <point x="81" y="487"/>
      <point x="74" y="461" type="curve" smooth="yes"/>
      <point x="73" y="457"/>
      <point x="72" y="457"/>
      <point x="67" y="457" type="curve" smooth="yes"/>
      <point x="62" y="457"/>
      <point x="49" y="457"/>
      <point x="49" y="457" type="curve" smooth="yes"/>
      <point x="50" y="457"/>
      <point x="39" y="456"/>
      <point x="30" y="450" type="curve" smooth="yes"/>
      <point x="20" y="443"/>
      <point x="7" y="431"/>
      <point x="-3" y="422" type="curve" smooth="yes"/>
      <point x="-11" y="415"/>
      <point x="-16" y="410"/>
      <point x="-16" y="406" type="curve" smooth="yes"/>
      <point x="-16" y="402"/>
      <point x="-12" y="400"/>
      <point x="-5" y="400" type="curve" smooth="yes"/>
      <point x="62" y="400" type="line"/>
      <point x="58" y="381"/>
      <point x="56" y="367"/>
      <point x="56" y="348" type="curve"/>
      <point x="42" y="348" type="line" smooth="yes"/>
      <point x="32" y="348"/>
      <point x="25" y="345"/>
      <point x="17" y="339" type="curve"/>
      <point x="-6" y="315" type="line" smooth="yes"/>
      <point x="-13" y="308"/>
      <point x="-19" y="300"/>
      <point x="-19" y="296" type="curve" smooth="yes"/>
      <point x="-19" y="292"/>
      <point x="-15" y="292"/>
      <point x="-8" y="292" type="curve" smooth="yes"/>
      <point x="58" y="292" type="line"/>
      <point x="73" y="116"/>
      <point x="161" y="-16"/>
    </contour>
  </outline>
</glyph>
<glyph name="radical" format="1">
  <advance width="762"/>
  <unicode hex="221A"/>
  <outline>
    <contour>
      <point x="191" y="34" type="curve" smooth="yes"/>
      <point x="216" y="52"/>
      <point x="239" y="78"/>
      <point x="256" y="113" type="curve" smooth="yes"/>
      <point x="282" y="166"/>
      <point x="297" y="226"/>
      <point x="314" y="293" type="curve" smooth="yes"/>
      <point x="316" y="301"/>
      <point x="317" y="310"/>
      <point x="324" y="310" type="curve" smooth="yes"/>
      <point x="327" y="310"/>
      <point x="334" y="307"/>
      <point x="342" y="300" type="curve" smooth="yes"/>
      <point x="429" y="224"/>
      <point x="542" y="115"/>
      <point x="648" y="-17" type="curve" smooth="yes"/>
      <point x="652" y="-22"/>
      <point x="655" y="-25"/>
      <point x="659" y="-25" type="curve" smooth="yes"/>
      <point x="661" y="-25"/>
      <point x="667" y="-19"/>
      <point x="672" y="-10" type="curve" smooth="yes"/>
      <point x="685" y="13"/>
      <point x="698" y="34"/>
      <point x="712" y="69" type="curve" smooth="yes"/>
      <point x="716" y="79"/>
      <point x="719" y="84"/>
      <point x="719" y="87" type="curve" smooth="yes"/>
      <point x="719" y="90"/>
      <point x="715" y="95"/>
      <point x="710" y="102" type="curve" smooth="yes"/>
      <point x="690" y="130"/>
      <point x="636" y="193"/>
      <point x="586" y="243" type="curve" smooth="yes"/>
      <point x="584" y="245"/>
      <point x="582" y="248"/>
      <point x="582" y="251" type="curve" smooth="yes"/>
      <point x="582" y="252"/>
      <point x="583" y="256"/>
      <point x="586" y="261" type="curve" smooth="yes"/>
      <point x="633" y="330"/>
      <point x="672" y="389"/>
      <point x="672" y="475" type="curve" smooth="yes"/>
      <point x="672" y="512"/>
      <point x="655" y="563"/>
      <point x="642" y="589" type="curve" smooth="yes"/>
      <point x="637" y="599"/>
      <point x="631" y="603"/>
      <point x="626" y="603" type="curve" smooth="yes"/>
      <point x="622" y="603"/>
      <point x="616" y="598"/>
      <point x="607" y="588" type="curve" smooth="yes"/>
      <point x="586" y="564"/>
      <point x="553" y="522"/>
      <point x="541" y="505" type="curve" smooth="yes"/>
      <point x="534" y="495"/>
      <point x="531" y="493"/>
      <point x="531" y="487" type="curve" smooth="yes"/>
      <point x="531" y="479"/>
      <point x="534" y="475"/>
      <point x="541" y="460" type="curve" smooth="yes"/>
      <point x="552" y="436"/>
      <point x="557" y="409"/>
      <point x="557" y="383" type="curve" smooth="yes"/>
      <point x="557" y="365"/>
      <point x="553" y="337"/>
      <point x="547" y="318" type="curve" smooth="yes"/>
      <point x="544" y="307"/>
      <point x="540" y="299"/>
      <point x="536" y="299" type="curve" smooth="yes"/>
      <point x="535" y="299"/>
      <point x="526" y="305"/>
      <point x="525" y="306" type="curve" smooth="yes"/>
      <point x="434" y="397"/>
      <point x="313" y="491"/>
      <point x="240" y="552" type="curve" smooth="yes"/>
      <point x="222" y="567"/>
      <point x="217" y="593"/>
      <point x="217" y="638" type="curve" smooth="yes"/>
      <point x="217" y="680"/>
      <point x="211" y="720"/>
      <point x="200" y="746" type="curve" smooth="yes"/>
      <point x="196" y="756"/>
      <point x="191" y="762"/>
      <point x="185" y="762" type="curve" smooth="yes"/>
      <point x="181" y="762"/>
      <point x="173" y="754"/>
      <point x="165" y="744" type="curve" smooth="yes"/>
      <point x="149" y="724"/>
      <point x="125" y="694"/>
      <point x="110" y="673" type="curve" smooth="yes"/>
      <point x="103" y="663"/>
      <point x="99" y="657"/>
      <point x="99" y="654" type="curve" smooth="yes"/>
      <point x="99" y="646"/>
      <point x="106" y="635"/>
      <point x="109" y="623" type="curve" smooth="yes"/>
      <point x="115" y="602"/>
      <point x="121" y="581"/>
      <point x="123" y="559" type="curve" smooth="yes"/>
      <point x="125" y="538"/>
      <point x="125" y="517"/>
      <point x="134" y="478" type="curve" smooth="yes"/>
      <point x="157" y="381"/>
      <point x="231" y="396"/>
      <point x="231" y="319" type="curve" smooth="yes"/>
      <point x="231" y="209"/>
      <point x="228" y="171"/>
      <point x="179" y="148" type="curve" smooth="yes"/>
      <point x="164" y="141"/>
      <point x="151" y="136"/>
      <point x="124" y="125" type="curve" smooth="yes"/>
      <point x="111" y="120"/>
      <point x="101" y="107"/>
      <point x="95" y="91" type="curve" smooth="yes"/>
      <point x="87" y="70"/>
      <point x="65" y="10"/>
      <point x="65" y="-4" type="curve" smooth="yes"/>
      <point x="65" y="-12"/>
      <point x="68" y="-16"/>
      <point x="74" y="-16" type="curve" smooth="yes"/>
      <point x="101" y="-16"/>
      <point x="166" y="16"/>
    </contour>
  </outline>
</glyph>
<glyph name="greaterequal" format="1">
  <advance width="544"/>
  <unicode hex="2265"/>
  <outline>
    <contour>
      <point x="469" y="84" type="curve"/>
      <point x="479" y="84"/>
      <point x="484" y="80"/>
      <point x="484" y="68" type="curve" smooth="yes"/>
      <point x="484" y="17" type="line" smooth="yes"/>
      <point x="484" y="8"/>
      <point x="481" y="2"/>
      <point x="468" y="2" type="curve" smooth="yes"/>
      <point x="468" y="2"/>
      <point x="325" y="5"/>
      <point x="275" y="5" type="curve" smooth="yes"/>
      <point x="224" y="5"/>
      <point x="81" y="2"/>
      <point x="81" y="2" type="curve"/>
      <point x="68" y="2"/>
      <point x="65" y="8"/>
      <point x="65" y="17" type="curve" smooth="yes"/>
      <point x="65" y="68" type="line" smooth="yes"/>
      <point x="65" y="80"/>
      <point x="71" y="84"/>
      <point x="80" y="84" type="curve" smooth="yes"/>
      <point x="80" y="84"/>
      <point x="214" y="81"/>
      <point x="275" y="81" type="curve" smooth="yes"/>
      <point x="336" y="81"/>
      <point x="469" y="84"/>
    </contour>
    <contour>
      <point x="478" y="295" type="curve" smooth="yes"/>
      <point x="444" y="281"/>
      <point x="361" y="243"/>
      <point x="282" y="206" type="curve" smooth="yes"/>
      <point x="211" y="173"/>
      <point x="142" y="140"/>
      <point x="114" y="125" type="curve" smooth="yes"/>
      <point x="111" y="124"/>
      <point x="107" y="123"/>
      <point x="104" y="123" type="curve" smooth="yes"/>
      <point x="100" y="123"/>
      <point x="96" y="125"/>
      <point x="92" y="132" type="curve" smooth="yes"/>
      <point x="69" y="180" type="line" smooth="yes"/>
      <point x="68" y="183"/>
      <point x="67" y="186"/>
      <point x="67" y="188" type="curve" smooth="yes"/>
      <point x="67" y="193"/>
      <point x="69" y="197"/>
      <point x="77" y="200" type="curve" smooth="yes"/>
      <point x="109" y="213"/>
      <point x="177" y="245"/>
      <point x="243" y="275" type="curve" smooth="yes"/>
      <point x="294" y="298"/>
      <point x="337" y="319"/>
      <point x="380" y="339" type="curve"/>
      <point x="242" y="403" type="line" smooth="yes"/>
      <point x="198" y="423"/>
      <point x="79" y="475"/>
      <point x="79" y="475" type="curve"/>
      <point x="70" y="480"/>
      <point x="67" y="483"/>
      <point x="67" y="489" type="curve"/>
      <point x="68" y="490"/>
      <point x="69" y="492"/>
      <point x="69" y="494" type="curve"/>
      <point x="91" y="542" type="line" smooth="yes"/>
      <point x="95" y="551"/>
      <point x="100" y="553"/>
      <point x="104" y="553" type="curve" smooth="yes"/>
      <point x="108" y="553"/>
      <point x="111" y="552"/>
      <point x="114" y="551" type="curve" smooth="yes"/>
      <point x="288" y="466" type="line" smooth="yes"/>
      <point x="349" y="436"/>
      <point x="435" y="402"/>
      <point x="478" y="384" type="curve" smooth="yes"/>
      <point x="486" y="380"/>
      <point x="491" y="377"/>
      <point x="491" y="367" type="curve" smooth="yes"/>
      <point x="491" y="314" type="line" smooth="yes"/>
      <point x="491" y="303"/>
      <point x="487" y="299"/>
    </contour>
  </outline>
</glyph>
<glyph name="shinshindothebrew" format="1">
  <advance width="726"/>
  <unicode hex="FB2A"/>
  <outline>
    <contour>
      <point x="582" y="669" type="curve"/>
      <point x="582" y="692"/>
      <point x="563" y="710"/>
      <point x="541" y="710" type="curve"/>
      <point x="518" y="710"/>
      <point x="500" y="692"/>
      <point x="500" y="669" type="curve"/>
      <point x="500" y="647"/>
      <point x="518" y="629"/>
      <point x="541" y="629" type="curve"/>
      <point x="563" y="629"/>
      <point x="582" y="647"/>
    </contour>
    <component base="shinhebrew"/>
  </outline>
</glyph>
<glyph name="shindageshsindothebrew" format="1">
  <advance width="726"/>
  <unicode hex="FB2D"/>
  <outline>
    <contour>
      <point x="245" y="669" type="curve"/>
      <point x="245" y="692"/>
      <point x="226" y="710"/>
      <point x="204" y="710" type="curve"/>
      <point x="181" y="710"/>
      <point x="163" y="692"/>
      <point x="163" y="669" type="curve"/>
      <point x="163" y="647"/>
      <point x="181" y="629"/>
      <point x="204" y="629" type="curve"/>
      <point x="226" y="629"/>
      <point x="245" y="647"/>
    </contour>
    <component base="shinhebrew"/>
    <component base="dageshhebrew" xOffset="239"/>
  </outline>
</glyph>
<glyph name="ampersant.salt" format="1">
  <advance width="742"/>
  <outline>
    <contour>
      <point x="602" y="598" type="curve" smooth="yes"/>
      <point x="582" y="578"/>
      <point x="567" y="559"/>
      <point x="548" y="531" type="curve" smooth="yes"/>
      <point x="542" y="522"/>
      <point x="542" y="521"/>
      <point x="542" y="516" type="curve" smooth="yes"/>
      <point x="542" y="501"/>
      <point x="579" y="454"/>
      <point x="579" y="418" type="curve" smooth="yes"/>
      <point x="579" y="406"/>
      <point x="576" y="401"/>
      <point x="573" y="401" type="curve" smooth="yes"/>
      <point x="571" y="401"/>
      <point x="567" y="403"/>
      <point x="561" y="408" type="curve" smooth="yes"/>
      <point x="447" y="510"/>
      <point x="221" y="589"/>
      <point x="137" y="599" type="curve" smooth="yes"/>
      <point x="131" y="600"/>
      <point x="126" y="600"/>
      <point x="121" y="600" type="curve" smooth="yes"/>
      <point x="118" y="600"/>
      <point x="115" y="597"/>
      <point x="107" y="589" type="curve" smooth="yes"/>
      <point x="90" y="572"/>
      <point x="66" y="540"/>
      <point x="48" y="514" type="curve" smooth="yes"/>
      <point x="43" y="507"/>
      <point x="42" y="503"/>
      <point x="42" y="499" type="curve" smooth="yes"/>
      <point x="42" y="496"/>
      <point x="47" y="494"/>
      <point x="56" y="493" type="curve" smooth="yes"/>
      <point x="77" y="491"/>
      <point x="117" y="483"/>
      <point x="145" y="476" type="curve"/>
      <point x="170" y="416"/>
      <point x="199" y="327"/>
      <point x="199" y="296" type="curve" smooth="yes"/>
      <point x="199" y="271"/>
      <point x="124" y="248"/>
      <point x="105" y="242" type="curve" smooth="yes"/>
      <point x="98" y="240"/>
      <point x="94" y="232"/>
      <point x="90" y="220" type="curve" smooth="yes"/>
      <point x="84" y="202"/>
      <point x="78" y="175"/>
      <point x="67" y="152" type="curve" smooth="yes"/>
      <point x="60" y="137"/>
      <point x="38" y="97"/>
      <point x="38" y="59" type="curve" smooth="yes"/>
      <point x="38" y="-30"/>
      <point x="187" y="-43"/>
      <point x="265" y="-43" type="curve" smooth="yes"/>
      <point x="405" y="-43"/>
      <point x="520" y="-16"/>
      <point x="615" y="14" type="curve" smooth="yes"/>
      <point x="664" y="29"/>
      <point x="667" y="66"/>
      <point x="686" y="114" type="curve" smooth="yes"/>
      <point x="688" y="119"/>
      <point x="690" y="125"/>
      <point x="690" y="127" type="curve" smooth="yes"/>
      <point x="690" y="130"/>
      <point x="689" y="132"/>
      <point x="687" y="133" type="curve" smooth="yes"/>
      <point x="684" y="133"/>
      <point x="682" y="131"/>
      <point x="676" y="129" type="curve" smooth="yes"/>
      <point x="641" y="117"/>
      <point x="476" y="58"/>
      <point x="276" y="58" type="curve" smooth="yes"/>
      <point x="208" y="58"/>
      <point x="93" y="72"/>
      <point x="93" y="122" type="curve" smooth="yes"/>
      <point x="93" y="127"/>
      <point x="98" y="134"/>
      <point x="109" y="137" type="curve" smooth="yes"/>
      <point x="136" y="144"/>
      <point x="180" y="161"/>
      <point x="195" y="169" type="curve" smooth="yes"/>
      <point x="216" y="179"/>
      <point x="232" y="196"/>
      <point x="240" y="217" type="curve" smooth="yes"/>
      <point x="249" y="241"/>
      <point x="257" y="281"/>
      <point x="260" y="300" type="curve" smooth="yes"/>
      <point x="262" y="310"/>
      <point x="262" y="324"/>
      <point x="262" y="341" type="curve" smooth="yes"/>
      <point x="262" y="368"/>
      <point x="253" y="407"/>
      <point x="237" y="454" type="curve"/>
      <point x="270" y="445"/>
      <point x="312" y="431"/>
      <point x="341" y="412" type="curve"/>
      <point x="376" y="333"/>
      <point x="389" y="237"/>
      <point x="403" y="158" type="curve" smooth="yes"/>
      <point x="404" y="152"/>
      <point x="407" y="149"/>
      <point x="410" y="149" type="curve" smooth="yes"/>
      <point x="414" y="149"/>
      <point x="418" y="153"/>
      <point x="421" y="160" type="curve" smooth="yes"/>
      <point x="431" y="183"/>
      <point x="440" y="209"/>
      <point x="452" y="247" type="curve" smooth="yes"/>
      <point x="454" y="253"/>
      <point x="456" y="260"/>
      <point x="456" y="267" type="curve" smooth="yes"/>
      <point x="456" y="271"/>
      <point x="455" y="278"/>
      <point x="454" y="282" type="curve" smooth="yes"/>
      <point x="449" y="306"/>
      <point x="436" y="355"/>
      <point x="436" y="361" type="curve" smooth="yes"/>
      <point x="436" y="363"/>
      <point x="437" y="364"/>
      <point x="439" y="364" type="curve" smooth="yes"/>
      <point x="440" y="364"/>
      <point x="442" y="364"/>
      <point x="444" y="363" type="curve" smooth="yes"/>
      <point x="524" y="317"/>
      <point x="596" y="252"/>
      <point x="644" y="180" type="curve" smooth="yes"/>
      <point x="650" y="171"/>
      <point x="652" y="166"/>
      <point x="657" y="166" type="curve" smooth="yes"/>
      <point x="668" y="166"/>
      <point x="682" y="256"/>
      <point x="682" y="270" type="curve" smooth="yes"/>
      <point x="682" y="286"/>
      <point x="644" y="327"/>
      <point x="624" y="350" type="curve" smooth="yes"/>
      <point x="614" y="361" type="line" smooth="yes"/>
      <point x="613" y="363"/>
      <point x="612" y="365"/>
      <point x="612" y="366" type="curve" smooth="yes"/>
      <point x="612" y="381"/>
      <point x="649" y="442"/>
      <point x="649" y="495" type="curve" smooth="yes"/>
      <point x="649" y="546"/>
      <point x="633" y="579"/>
      <point x="622" y="595" type="curve" smooth="yes"/>
      <point x="618" y="601"/>
      <point x="614" y="603"/>
      <point x="611" y="603" type="curve" smooth="yes"/>
      <point x="608" y="603"/>
      <point x="605" y="601"/>
    </contour>
  </outline>
</glyph>
<glyph name="eight.001" format="1">
  <advance width="500"/>
  <outline>
    <contour>
      <point x="43" y="147" type="curve" smooth="yes"/>
      <point x="43" y="39"/>
      <point x="155" y="-17"/>
      <point x="227" y="-17" type="curve" smooth="yes"/>
      <point x="329" y="-17"/>
      <point x="432" y="93"/>
      <point x="432" y="192" type="curve" smooth="yes"/>
      <point x="432" y="240"/>
      <point x="401" y="283"/>
      <point x="332" y="323" type="curve" smooth="yes"/>
      <point x="320" y="330"/>
      <point x="318" y="332"/>
      <point x="318" y="334" type="curve" smooth="yes"/>
      <point x="318" y="335"/>
      <point x="322" y="339"/>
      <point x="323" y="340" type="curve" smooth="yes"/>
      <point x="370" y="377"/>
      <point x="394" y="411"/>
      <point x="394" y="462" type="curve" smooth="yes"/>
      <point x="394" y="537"/>
      <point x="324" y="598"/>
      <point x="235" y="598" type="curve" smooth="yes"/>
      <point x="159" y="598"/>
      <point x="61" y="515"/>
      <point x="61" y="418" type="curve" smooth="yes"/>
      <point x="61" y="354"/>
      <point x="100" y="321"/>
      <point x="132" y="303" type="curve" smooth="yes"/>
      <point x="135" y="302"/>
      <point x="138" y="299"/>
      <point x="138" y="297" type="curve" smooth="yes"/>
      <point x="138" y="296"/>
      <point x="136" y="292"/>
      <point x="132" y="290" type="curve" smooth="yes"/>
      <point x="101" y="271"/>
      <point x="43" y="224"/>
    </contour>
    <contour>
      <point x="315" y="158" type="curve" smooth="yes"/>
      <point x="315" y="121"/>
      <point x="297" y="97"/>
      <point x="250" y="97" type="curve" smooth="yes"/>
      <point x="191" y="97"/>
      <point x="148" y="132"/>
      <point x="148" y="182" type="curve" smooth="yes"/>
      <point x="148" y="237"/>
      <point x="198" y="257"/>
      <point x="201" y="257" type="curve" smooth="yes"/>
      <point x="204" y="257"/>
      <point x="206" y="257"/>
      <point x="214" y="253" type="curve" smooth="yes"/>
      <point x="280" y="220"/>
      <point x="315" y="198"/>
    </contour>
    <contour>
      <point x="251" y="366" type="curve" smooth="yes"/>
      <point x="245" y="366"/>
      <point x="239" y="368"/>
      <point x="231" y="372" type="curve" smooth="yes"/>
      <point x="201" y="387"/>
      <point x="169" y="406"/>
      <point x="169" y="445" type="curve" smooth="yes"/>
      <point x="169" y="469"/>
      <point x="177" y="492"/>
      <point x="216" y="492" type="curve" smooth="yes"/>
      <point x="256" y="492"/>
      <point x="295" y="469"/>
      <point x="295" y="428" type="curve" smooth="yes"/>
      <point x="295" y="410"/>
      <point x="288" y="393"/>
      <point x="273" y="380" type="curve" smooth="yes"/>
      <point x="258" y="368"/>
      <point x="254" y="366"/>
    </contour>
  </outline>
</glyph>
<glyph name="five.001" format="1">
  <advance width="500"/>
  <outline>
    <contour>
      <point x="127" y="122" type="curve" smooth="yes"/>
      <point x="118" y="111"/>
      <point x="90" y="60"/>
      <point x="78" y="36" type="curve" smooth="yes"/>
      <point x="75" y="29"/>
      <point x="73" y="24"/>
      <point x="73" y="21" type="curve" smooth="yes"/>
      <point x="73" y="17"/>
      <point x="77" y="12"/>
      <point x="86" y="8" type="curve" smooth="yes"/>
      <point x="113" y="-4"/>
      <point x="174" y="-17"/>
      <point x="207" y="-17" type="curve" smooth="yes"/>
      <point x="267" y="-17"/>
      <point x="336" y="14"/>
      <point x="387" y="85" type="curve" smooth="yes"/>
      <point x="406" y="112"/>
      <point x="430" y="156"/>
      <point x="430" y="206" type="curve" smooth="yes"/>
      <point x="430" y="319"/>
      <point x="326" y="361"/>
      <point x="277" y="361" type="curve" smooth="yes"/>
      <point x="232" y="361" type="line" smooth="yes"/>
      <point x="224" y="361"/>
      <point x="213" y="369"/>
      <point x="213" y="378" type="curve" smooth="yes"/>
      <point x="213" y="396"/>
      <point x="212" y="408"/>
      <point x="212" y="421" type="curve" smooth="yes"/>
      <point x="212" y="431"/>
      <point x="217" y="434"/>
      <point x="227" y="434" type="curve" smooth="yes"/>
      <point x="342" y="434" type="line" smooth="yes"/>
      <point x="360" y="434"/>
      <point x="366" y="437"/>
      <point x="372" y="445" type="curve" smooth="yes"/>
      <point x="387" y="468"/>
      <point x="421" y="530"/>
      <point x="421" y="549" type="curve" smooth="yes"/>
      <point x="421" y="558"/>
      <point x="415" y="563"/>
      <point x="401" y="563" type="curve" smooth="yes"/>
      <point x="214" y="563" type="line" smooth="yes"/>
      <point x="190" y="563"/>
      <point x="196" y="565"/>
      <point x="180" y="595" type="curve" smooth="yes"/>
      <point x="179" y="598"/>
      <point x="174" y="603"/>
      <point x="168" y="603" type="curve" smooth="yes"/>
      <point x="163" y="603"/>
      <point x="156" y="598"/>
      <point x="149" y="589" type="curve" smooth="yes"/>
      <point x="129" y="564"/>
      <point x="104" y="516"/>
      <point x="101" y="497" type="curve" smooth="yes"/>
      <point x="98" y="480"/>
      <point x="98" y="471"/>
      <point x="98" y="449" type="curve" smooth="yes"/>
      <point x="98" y="394"/>
      <point x="99" y="338"/>
      <point x="106" y="276" type="curve" smooth="yes"/>
      <point x="108" y="259"/>
      <point x="120" y="248"/>
      <point x="141" y="248" type="curve" smooth="yes"/>
      <point x="204" y="248" type="line"/>
      <point x="285" y="243"/>
      <point x="313" y="213"/>
      <point x="313" y="170" type="curve" smooth="yes"/>
      <point x="313" y="134"/>
      <point x="295" y="110"/>
      <point x="242" y="110" type="curve" smooth="yes"/>
      <point x="217" y="110"/>
      <point x="184" y="118"/>
      <point x="164" y="125" type="curve" smooth="yes"/>
      <point x="155" y="128"/>
      <point x="147" y="132"/>
      <point x="141" y="132" type="curve" smooth="yes"/>
      <point x="135" y="132"/>
      <point x="130" y="126"/>
    </contour>
  </outline>
</glyph>
<glyph name="one.001" format="1">
  <advance width="500"/>
  <outline>
    <contour>
      <point x="55" y="23" type="curve" smooth="yes"/>
      <point x="52" y="16"/>
      <point x="50" y="10"/>
      <point x="50" y="7" type="curve" smooth="yes"/>
      <point x="50" y="0"/>
      <point x="60" y="0"/>
      <point x="71" y="0" type="curve" smooth="yes"/>
      <point x="376" y="0" type="line" smooth="yes"/>
      <point x="390" y="0"/>
      <point x="403" y="6"/>
      <point x="414" y="24" type="curve" smooth="yes"/>
      <point x="433" y="55"/>
      <point x="436" y="67"/>
      <point x="451" y="97" type="curve" smooth="yes"/>
      <point x="454" y="103"/>
      <point x="458" y="112"/>
      <point x="458" y="116" type="curve" smooth="yes"/>
      <point x="458" y="123"/>
      <point x="451" y="126"/>
      <point x="445" y="126" type="curve" smooth="yes"/>
      <point x="357" y="126" type="line" smooth="yes"/>
      <point x="339" y="126"/>
      <point x="326" y="134"/>
      <point x="326" y="153" type="curve" smooth="yes"/>
      <point x="326" y="184"/>
      <point x="319" y="288"/>
      <point x="319" y="434" type="curve" smooth="yes"/>
      <point x="319" y="457"/>
      <point x="319" y="543"/>
      <point x="305" y="587" type="curve" smooth="yes"/>
      <point x="301" y="599"/>
      <point x="290" y="605"/>
      <point x="279" y="605" type="curve" smooth="yes"/>
      <point x="267" y="605"/>
      <point x="253" y="600"/>
      <point x="239" y="592" type="curve" smooth="yes"/>
      <point x="199" y="569"/>
      <point x="146" y="531"/>
      <point x="114" y="506" type="curve" smooth="yes"/>
      <point x="101" y="496"/>
      <point x="93" y="485"/>
      <point x="93" y="479" type="curve" smooth="yes"/>
      <point x="93" y="468"/>
      <point x="102" y="464"/>
      <point x="117" y="463" type="curve" smooth="yes"/>
      <point x="163" y="459" type="line" smooth="yes"/>
      <point x="184" y="457"/>
      <point x="198" y="435"/>
      <point x="203" y="395" type="curve" smooth="yes"/>
      <point x="210" y="341"/>
      <point x="211" y="267"/>
      <point x="211" y="173" type="curve" smooth="yes"/>
      <point x="211" y="152"/>
      <point x="211" y="126"/>
      <point x="188" y="126" type="curve" smooth="yes"/>
      <point x="124" y="126" type="line" smooth="yes"/>
      <point x="111" y="126"/>
      <point x="106" y="122"/>
      <point x="102" y="116" type="curve" smooth="yes"/>
      <point x="91" y="100"/>
      <point x="64" y="44"/>
    </contour>
  </outline>
</glyph>
<glyph name="shekel.salt" format="1">
  <advance width="567"/>
  <outline>
    <contour>
      <point x="16" y="306" type="curve" smooth="yes"/>
      <point x="14" y="301"/>
      <point x="12" y="296"/>
      <point x="12" y="291" type="curve" smooth="yes"/>
      <point x="12" y="285"/>
      <point x="17" y="280"/>
      <point x="24" y="264" type="curve"/>
      <point x="45" y="212"/>
      <point x="55" y="155"/>
      <point x="60" y="102" type="curve" smooth="yes"/>
      <point x="69" y="15"/>
      <point x="92" y="-21"/>
      <point x="171" y="-21" type="curve" smooth="yes"/>
      <point x="231" y="-21"/>
      <point x="302" y="-6"/>
      <point x="363" y="32" type="curve" smooth="yes"/>
      <point x="397" y="53"/>
      <point x="435" y="86"/>
      <point x="464" y="127" type="curve" smooth="yes"/>
      <point x="497" y="174"/>
      <point x="533" y="234"/>
      <point x="548" y="294" type="curve" smooth="yes"/>
      <point x="568" y="373"/>
      <point x="576" y="422"/>
      <point x="576" y="459" type="curve" smooth="yes"/>
      <point x="576" y="498"/>
      <point x="567" y="543"/>
      <point x="559" y="568" type="curve" smooth="yes"/>
      <point x="556" y="578"/>
      <point x="550" y="584"/>
      <point x="544" y="584" type="curve" smooth="yes"/>
      <point x="535" y="584"/>
      <point x="531" y="575"/>
      <point x="524" y="564" type="curve" smooth="yes"/>
      <point x="503" y="531"/>
      <point x="471" y="469"/>
      <point x="465" y="453" type="curve" smooth="yes"/>
      <point x="458" y="435"/>
      <point x="454" y="424"/>
      <point x="454" y="412" type="curve" smooth="yes"/>
      <point x="454" y="396"/>
      <point x="466" y="349"/>
      <point x="466" y="321" type="curve" smooth="yes"/>
      <point x="466" y="249"/>
      <point x="439" y="197"/>
      <point x="362" y="147" type="curve" smooth="yes"/>
      <point x="315" y="116"/>
      <point x="259" y="102"/>
      <point x="192" y="102" type="curve" smooth="yes"/>
      <point x="173" y="102"/>
      <point x="163" y="109"/>
      <point x="158" y="127" type="curve" smooth="yes"/>
      <point x="154" y="141"/>
      <point x="149" y="163"/>
      <point x="149" y="185" type="curve" smooth="yes"/>
      <point x="149" y="191"/>
      <point x="152" y="196"/>
      <point x="159" y="196" type="curve" smooth="yes"/>
      <point x="198" y="196"/>
      <point x="259" y="222"/>
      <point x="285" y="243" type="curve" smooth="yes"/>
      <point x="346" y="291"/>
      <point x="396" y="370"/>
      <point x="396" y="455" type="curve" smooth="yes"/>
      <point x="396" y="521"/>
      <point x="361" y="560"/>
      <point x="291" y="560" type="curve" smooth="yes"/>
      <point x="130" y="560" type="line" smooth="yes"/>
      <point x="109" y="560"/>
      <point x="93" y="564"/>
      <point x="93" y="585" type="curve" smooth="yes"/>
      <point x="93" y="650"/>
      <point x="199" y="654"/>
      <point x="268" y="654" type="curve" smooth="yes"/>
      <point x="277" y="654"/>
      <point x="292" y="663"/>
      <point x="302" y="676" type="curve" smooth="yes"/>
      <point x="318" y="697"/>
      <point x="336" y="722"/>
      <point x="351" y="747" type="curve" smooth="yes"/>
      <point x="355" y="754"/>
      <point x="357" y="759"/>
      <point x="357" y="763" type="curve" smooth="yes"/>
      <point x="357" y="773"/>
      <point x="350" y="775"/>
      <point x="343" y="775" type="curve" smooth="yes"/>
      <point x="279" y="775"/>
      <point x="192" y="753"/>
      <point x="134" y="722" type="curve" smooth="yes"/>
      <point x="117" y="713"/>
      <point x="103" y="704"/>
      <point x="74" y="677" type="curve" smooth="yes"/>
      <point x="18" y="625"/>
      <point x="-4" y="571"/>
      <point x="-4" y="528" type="curve" smooth="yes"/>
      <point x="-4" y="478"/>
      <point x="35" y="447"/>
      <point x="74" y="447" type="curve" smooth="yes"/>
      <point x="103" y="447"/>
      <point x="151" y="446"/>
      <point x="228" y="446" type="curve" smooth="yes"/>
      <point x="275" y="446"/>
      <point x="309" y="438"/>
      <point x="309" y="387" type="curve" smooth="yes"/>
      <point x="309" y="372"/>
      <point x="303" y="347"/>
      <point x="280" y="334" type="curve" smooth="yes"/>
      <point x="245" y="314"/>
      <point x="186" y="306"/>
      <point x="158" y="306" type="curve" smooth="yes"/>
      <point x="144" y="306"/>
      <point x="134" y="308"/>
      <point x="132" y="317" type="curve" smooth="yes"/>
      <point x="129" y="329"/>
      <point x="120" y="371"/>
      <point x="110" y="395" type="curve" smooth="yes"/>
      <point x="105" y="407"/>
      <point x="100" y="413"/>
      <point x="94" y="413" type="curve" smooth="yes"/>
      <point x="88" y="413"/>
      <point x="80" y="405"/>
      <point x="72" y="394" type="curve" smooth="yes"/>
      <point x="50" y="364"/>
      <point x="18" y="313"/>
    </contour>
  </outline>
</glyph>
<glyph name="six.001" format="1">
  <advance width="500"/>
  <outline>
    <contour>
      <point x="106" y="335" type="curve" smooth="yes"/>
      <point x="76" y="280"/>
      <point x="43" y="216"/>
      <point x="43" y="158" type="curve" smooth="yes"/>
      <point x="43" y="46"/>
      <point x="141" y="-17"/>
      <point x="225" y="-17" type="curve" smooth="yes"/>
      <point x="348" y="-17"/>
      <point x="444" y="123"/>
      <point x="444" y="207" type="curve" smooth="yes"/>
      <point x="444" y="290"/>
      <point x="389" y="373"/>
      <point x="292" y="373" type="curve" smooth="yes"/>
      <point x="256" y="373"/>
      <point x="243" y="363"/>
      <point x="240" y="363" type="curve"/>
      <point x="239" y="363"/>
      <point x="237" y="364"/>
      <point x="237" y="366" type="curve" smooth="yes"/>
      <point x="237" y="367"/>
      <point x="239" y="370"/>
      <point x="242" y="375" type="curve" smooth="yes"/>
      <point x="270" y="421"/>
      <point x="328" y="507"/>
      <point x="374" y="565" type="curve" smooth="yes"/>
      <point x="381" y="574"/>
      <point x="388" y="584"/>
      <point x="388" y="591" type="curve" smooth="yes"/>
      <point x="388" y="596"/>
      <point x="385" y="602"/>
      <point x="376" y="602" type="curve" smooth="yes"/>
      <point x="370" y="602"/>
      <point x="360" y="598"/>
      <point x="348" y="594" type="curve" smooth="yes"/>
      <point x="324" y="586"/>
      <point x="292" y="574"/>
      <point x="273" y="563" type="curve" smooth="yes"/>
      <point x="257" y="554"/>
      <point x="245" y="542"/>
      <point x="232" y="525" type="curve" smooth="yes"/>
      <point x="197" y="479"/>
      <point x="145" y="407"/>
    </contour>
    <contour>
      <point x="339" y="176" type="curve" smooth="yes"/>
      <point x="339" y="125"/>
      <point x="319" y="93"/>
      <point x="250" y="93" type="curve" smooth="yes"/>
      <point x="204" y="93"/>
      <point x="153" y="129"/>
      <point x="153" y="184" type="curve" smooth="yes"/>
      <point x="153" y="236"/>
      <point x="189" y="277"/>
      <point x="242" y="277" type="curve" smooth="yes"/>
      <point x="300" y="277"/>
      <point x="339" y="221"/>
    </contour>
  </outline>
</glyph>
